<svg width="61" height="45" viewBox="0 0 61 45" fill="none" xmlns="http://www.w3.org/2000/svg">
<path id="Vector" d="M60.7934 22.9559C60.7934 22.4295 60.6602 21.9067 60.4081 21.4439L60.0646 20.8132C60.0638 20.8116 60.063 20.8101 60.0621 20.8085L52.0024 6.00819C51.4433 4.98159 50.3664 4.34374 49.192 4.34374H38.6638V3.63416C38.6638 1.88267 37.2302 0.457825 35.4681 0.457825H3.19569C1.43363 0.457825 0 1.88267 0 3.63416V22.5019C0 22.9937 0.398719 23.3924 0.890529 23.3924C1.38234 23.3924 1.78106 22.9937 1.78106 22.5019V3.63416C1.78106 2.86475 2.41571 2.23888 3.19569 2.23888H35.468C36.248 2.23888 36.8826 2.86475 36.8826 3.63416V4.50581C35.612 4.92579 34.6927 6.11791 34.6927 7.52007V31.5215C34.6927 32.0133 35.0915 32.412 35.5833 32.412H41.2379C40.3487 33.5178 39.7578 34.8688 39.5867 36.3455H21.2066C21.0355 34.8688 20.4446 33.5177 19.5554 32.412H32.4138C32.9056 32.412 33.3043 32.0133 33.3043 31.5215C33.3043 31.0297 32.9056 30.631 32.4138 30.631H17.529C16.342 29.9067 14.9463 29.4881 13.4536 29.4881C11.961 29.4881 10.5654 29.9068 9.37822 30.631H1.78106V30.3786V25.7307C1.78106 25.2389 1.38234 24.8401 0.890529 24.8401C0.398719 24.8401 0 25.2389 0 25.7307V30.3786V31.5215V34.9503C0 36.7018 1.43363 38.1266 3.19569 38.1266H5.70081C6.14738 41.9808 9.45302 44.9841 13.4536 44.9841C17.4544 44.9841 20.7599 41.9808 21.2066 38.1266H39.5868C40.0334 41.9808 43.3391 44.9841 47.3398 44.9841C51.3405 44.9841 54.646 41.9808 55.0927 38.1266H57.5979C59.3599 38.1266 60.7935 36.7018 60.7935 34.9503V31.5237C60.7935 31.5229 60.7937 31.5222 60.7937 31.5215V22.9559H60.7934ZM36.4739 7.52019C36.4739 6.75078 37.1086 6.12491 37.8886 6.12491H40.3405V9.63466C40.3405 10.1265 40.7392 10.5252 41.231 10.5252C41.7228 10.5252 42.1215 10.1265 42.1215 9.63466V6.12491H49.192C49.7138 6.12491 50.1913 6.40668 50.4382 6.86001L57.7815 20.3448H43.5362C42.7562 20.3448 42.1215 19.7189 42.1215 18.9495V12.8347C42.1215 12.3429 41.7228 11.9442 41.231 11.9442C40.7392 11.9442 40.3405 12.3429 40.3405 12.8347V18.9495C40.3405 20.701 41.7741 22.1258 43.5362 22.1258H58.7515L58.844 22.2957C58.9542 22.4981 59.0124 22.7263 59.0124 22.956V30.3765C59.0124 30.3773 59.0122 30.378 59.0122 30.3788V30.6311H51.585C51.5342 30.6311 51.4847 30.6363 51.4362 30.6445C50.2446 29.9122 48.8413 29.4882 47.3398 29.4882C45.8471 29.4882 44.4514 29.9069 43.2644 30.6311H36.474V7.52019H36.4739ZM1.78106 34.9504V32.4121H7.35197C6.46274 33.5179 5.87191 34.8689 5.70081 36.3457H3.19569C2.41571 36.3457 1.78106 35.7198 1.78106 34.9504ZM13.4536 43.2032C10.1315 43.2032 7.42867 40.5264 7.42867 37.2362C7.42867 33.946 10.1315 31.2692 13.4536 31.2692C16.7758 31.2692 19.4786 33.946 19.4786 37.2362C19.4786 40.5264 16.7759 43.2032 13.4536 43.2032ZM47.3397 43.2032C44.0175 43.2032 41.3147 40.5264 41.3147 37.2362C41.3147 33.946 44.0175 31.2692 47.3397 31.2692C50.6618 31.2692 53.3646 33.946 53.3646 37.2362C53.3646 40.5264 50.6618 43.2032 47.3397 43.2032ZM57.5976 36.3457H55.0925C54.9214 34.8689 54.3306 33.5178 53.4413 32.4121H59.0122V34.9504C59.0122 35.7198 58.3776 36.3457 57.5976 36.3457ZM53.0189 24.6641C53.0189 24.1722 53.4176 23.7735 53.9094 23.7735H56.2146C56.7064 23.7735 57.1051 24.1722 57.1051 24.6641C57.1051 25.1559 56.7064 25.5546 56.2146 25.5546H53.9094C53.4176 25.5546 53.0189 25.1559 53.0189 24.6641ZM13.4536 34.0598C11.6916 34.0598 10.2579 35.4847 10.2579 37.2362C10.2579 38.9877 11.6916 40.4125 13.4536 40.4125C15.2157 40.4125 16.6493 38.9877 16.6493 37.2362C16.6493 35.4847 15.2157 34.0598 13.4536 34.0598ZM13.4536 38.6316C12.6736 38.6316 12.039 38.0057 12.039 37.2363C12.039 36.4669 12.6736 35.841 13.4536 35.841C14.2336 35.841 14.8683 36.4669 14.8683 37.2363C14.8683 38.0057 14.2336 38.6316 13.4536 38.6316ZM47.3397 34.0598C45.5776 34.0598 44.144 35.4847 44.144 37.2362C44.144 38.9877 45.5776 40.4125 47.3397 40.4125C49.1017 40.4125 50.5354 38.9877 50.5354 37.2362C50.5354 35.4847 49.1017 34.0598 47.3397 34.0598ZM47.3397 38.6316C46.5597 38.6316 45.925 38.0057 45.925 37.2363C45.925 36.4669 46.5597 35.841 47.3397 35.841C48.1197 35.841 48.7543 36.4669 48.7543 37.2363C48.7543 38.0057 48.1197 38.6316 47.3397 38.6316Z" fill="#36383F"/>
</svg>
