<svg width="54" height="53" viewBox="0 0 54 53" fill="none" xmlns="http://www.w3.org/2000/svg">
<g id="storage 1">
<path id="Vector 32" d="M7.5 6L3 21H51.5L46.5 6H7.5Z" fill="#F04716"/>
<rect id="Rectangle 83" x="27" y="34" width="10" height="7" fill="#4788FF"/>
<path id="Rectangle 84" d="M27 44H37V50.5H27V44Z" fill="#4788FF"/>
<path id="Rectangle 85" d="M17 44H27V50.5H17V44Z" fill="#F04716"/>
<path id="Rectangle 86" d="M7 2.5H47V7H7V2.5Z" fill="#F04716"/>
<g id="Group">
<g id="Group_2">
<path id="Vector" d="M7.21399 42.8381C7.40976 42.838 7.59748 42.7616 7.73591 42.6257C7.87434 42.4899 7.95216 42.3056 7.95227 42.1135V40.2502C7.95227 40.058 7.87449 39.8737 7.73603 39.7378C7.59758 39.6019 7.40979 39.5256 7.21399 39.5256C7.01818 39.5256 6.8304 39.6019 6.69195 39.7378C6.55349 39.8737 6.47571 40.058 6.47571 40.2502V42.1135C6.47571 42.3056 6.55349 42.4899 6.69195 42.6258C6.8304 42.7617 7.01818 42.8381 7.21399 42.8381Z" fill="#36383F"/>
<path id="Vector_2" d="M52.0467 20.993L47.5259 6.19064V2.61148C47.5259 2.51631 47.5069 2.42206 47.4698 2.33412C47.4327 2.24618 47.3783 2.16628 47.3098 2.09898C47.2412 2.03169 47.1598 1.97831 47.0702 1.94192C46.9806 1.90552 46.8846 1.88682 46.7876 1.88687H41.6622C41.4664 1.88687 41.2786 1.96321 41.1402 2.0991C41.0017 2.235 40.924 2.4193 40.924 2.61148C40.924 2.80366 41.0017 2.98797 41.1402 3.12386C41.2786 3.25975 41.4664 3.33609 41.6622 3.33609H46.0497V5.57203H7.95061V3.33609H38.4235C38.6193 3.33609 38.8071 3.25975 38.9455 3.12386C39.084 2.98797 39.1618 2.80366 39.1618 2.61148C39.1618 2.4193 39.084 2.235 38.9455 2.0991C38.8071 1.96321 38.6193 1.88687 38.4235 1.88687H7.21401C7.11705 1.88682 7.02102 1.90552 6.93142 1.94192C6.84182 1.97831 6.76041 2.03169 6.69185 2.09898C6.62328 2.16628 6.5689 2.24618 6.53182 2.33412C6.49474 2.42206 6.47568 2.51631 6.47573 2.61148V6.19064L1.95323 20.993C1.92013 21.1012 1.91327 21.2155 1.93322 21.3267C1.95317 21.438 1.99937 21.5432 2.06812 21.6338C2.13687 21.7244 2.22627 21.7979 2.32917 21.8486C2.43206 21.8992 2.54561 21.9256 2.66072 21.9254H6.47404V36.84C6.47404 37.0321 6.55183 37.2164 6.69028 37.3523C6.82874 37.4882 7.01652 37.5646 7.21233 37.5646C7.40813 37.5646 7.59592 37.4882 7.73437 37.3523C7.87282 37.2164 7.95061 37.0321 7.95061 36.84V21.925H46.0493V49.6639H43.2616V25.3862C43.2616 25.291 43.2426 25.1967 43.2055 25.1088C43.1684 25.0209 43.114 24.941 43.0454 24.8737C42.9769 24.8064 42.8955 24.753 42.8059 24.7166C42.7163 24.6802 42.6202 24.6615 42.5233 24.6616H11.475C11.378 24.6615 11.282 24.6802 11.1924 24.7166C11.1028 24.753 11.0214 24.8064 10.9528 24.8737C10.8842 24.941 10.8298 25.0209 10.7928 25.1088C10.7557 25.1967 10.7366 25.291 10.7367 25.3862V49.6639H7.95061V45.698C7.95061 45.5058 7.87282 45.3215 7.73437 45.1856C7.59592 45.0497 7.40813 44.9734 7.21233 44.9734C7.01652 44.9734 6.82874 45.0497 6.69028 45.1856C6.55183 45.3215 6.47404 45.5058 6.47404 45.698V50.3885C6.47399 50.4837 6.49305 50.5779 6.53013 50.6659C6.56721 50.7538 6.62159 50.8337 6.69016 50.901C6.75873 50.9683 6.84014 51.0217 6.92973 51.0581C7.01933 51.0945 7.11536 51.1132 7.21233 51.1131H46.7859C46.8829 51.1132 46.9789 51.0945 47.0685 51.0581C47.1581 51.0217 47.2395 50.9683 47.3081 50.901C47.3766 50.8337 47.431 50.7538 47.4681 50.6659C47.5052 50.5779 47.5242 50.4837 47.5242 50.3885V21.925H51.3375C51.4527 21.9254 51.5664 21.8993 51.6695 21.8487C51.7726 21.7982 51.8621 21.7247 51.9311 21.6341C52 21.5435 52.0464 21.4384 52.0664 21.327C52.0865 21.2157 52.0798 21.1013 52.0467 20.993ZM12.2149 26.1108H41.785V49.6639H37.3047V31.6108C37.3047 31.4186 37.2269 31.2343 37.0884 31.0984C36.95 30.9625 36.7622 30.8862 36.5664 30.8862H27C26.8042 30.8862 26.6164 30.9625 26.4779 31.0984C26.3395 31.2343 26.2617 31.4186 26.2617 31.6108V40.2746H17.4331C17.2373 40.2746 17.0495 40.351 16.9111 40.4868C16.7726 40.6227 16.6948 40.807 16.6948 40.9992V49.6639H12.2149V26.1108ZM27.7399 35.2144H35.8285V40.2746H27.7382L27.7399 35.2144ZM35.8302 33.7651H27.7382V32.3345H35.8285L35.8302 33.7651ZM26.2617 43.1548H18.1714V41.7238H26.2617V43.1548ZM27.7382 41.7238H35.8281V43.1548H27.7382V41.7238ZM18.1714 44.604H26.2617V49.6639H18.1714V44.604ZM27.7382 49.6639V44.604H35.8281V49.6639H27.7382ZM3.65254 20.4758L7.76245 7.02207H46.2375L50.3465 20.4758H3.65254Z" fill="#36383F"/>
<path id="Vector_3" d="M17.5301 16.6097H9.24701C9.0512 16.6097 8.86342 16.686 8.72496 16.8219C8.58651 16.9578 8.50873 17.1421 8.50873 17.3343C8.50873 17.5265 8.58651 17.7108 8.72496 17.8467C8.86342 17.9826 9.0512 18.0589 9.24701 18.0589H17.5301C17.7259 18.0589 17.9137 17.9826 18.0521 17.8467C18.1906 17.7108 18.2684 17.5265 18.2684 17.3343C18.2684 17.1421 18.1906 16.9578 18.0521 16.8219C17.9137 16.686 17.7259 16.6097 17.5301 16.6097Z" fill="#36383F"/>
<path id="Vector_4" d="M22.5775 16.6097H20.6369C20.4411 16.6097 20.2533 16.686 20.1149 16.8219C19.9764 16.9578 19.8986 17.1421 19.8986 17.3343C19.8986 17.5265 19.9764 17.7108 20.1149 17.8467C20.2533 17.9826 20.4411 18.0589 20.6369 18.0589H22.5775C22.7733 18.0589 22.9611 17.9826 23.0996 17.8467C23.238 17.7108 23.3158 17.5265 23.3158 17.3343C23.3158 17.1421 23.238 16.9578 23.0996 16.8219C22.9611 16.686 22.7733 16.6097 22.5775 16.6097Z" fill="#36383F"/>
</g>
</g>
</g>
</svg>
