<svg width="54" height="54" viewBox="0 0 54 54" fill="none" xmlns="http://www.w3.org/2000/svg">
<g clip-path="url(#clip0_2_1396)">
<circle cx="39" cy="21" r="4.5" stroke="#4788FF" stroke-width="3"/>
<rect x="1" y="1" width="3" height="52" fill="#4788FF"/>
<rect x="25" y="1" width="4" height="52" fill="#F04716"/>
<path d="M50 1H53.5V53H50V1Z" fill="#4788FF"/>
<path d="M53.2617 12.9393C53.3587 12.9394 53.4547 12.9203 53.5443 12.8832C53.6339 12.8462 53.7153 12.7918 53.7839 12.7232C53.8525 12.6546 53.9068 12.5732 53.9439 12.4836C53.981 12.394 54.0001 12.298 54 12.201V0.738281C54.0001 0.641313 53.981 0.545285 53.9439 0.455688C53.9068 0.36609 53.8525 0.284681 53.7839 0.216114C53.7153 0.147547 53.6339 0.0931679 53.5443 0.0560855C53.4547 0.019003 53.3587 -5.53372e-05 53.2617 1.20685e-07H49.8867C49.7897 -5.53372e-05 49.6937 0.019003 49.6041 0.0560855C49.5145 0.0931679 49.4331 0.147547 49.3646 0.216114C49.296 0.284681 49.2416 0.36609 49.2045 0.455688C49.1674 0.545285 49.1484 0.641313 49.1484 0.738281V3.67031H29.4258V0.738281C29.4258 0.641313 29.4068 0.545285 29.3697 0.455688C29.3326 0.36609 29.2782 0.284681 29.2097 0.216114C29.1411 0.147547 29.0597 0.0931679 28.9701 0.0560855C28.8805 0.019003 28.7845 -5.53372e-05 28.6875 1.20685e-07H25.3125C25.1167 1.20685e-07 24.9289 0.0777831 24.7905 0.216238C24.652 0.354692 24.5742 0.542477 24.5742 0.738281V3.67031H4.85156V0.738281C4.85156 0.542477 4.77378 0.354692 4.63532 0.216238C4.49687 0.0777831 4.30909 1.20685e-07 4.11328 1.20685e-07H0.738281C0.542477 1.20685e-07 0.354692 0.0777831 0.216238 0.216238C0.077783 0.354692 0 0.542477 0 0.738281L0 53.2617C0 53.4575 0.077783 53.6453 0.216238 53.7838C0.354692 53.9222 0.542477 54 0.738281 54H4.11328C4.30909 54 4.49687 53.9222 4.63532 53.7838C4.77378 53.6453 4.85156 53.4575 4.85156 53.2617V50.3297H24.5742V53.263C24.5746 53.4586 24.6525 53.646 24.7909 53.7842C24.9293 53.9224 25.1169 54 25.3125 54H28.6875C28.7845 54.0001 28.8805 53.981 28.9701 53.9439C29.0597 53.9068 29.1411 53.8525 29.2097 53.7839C29.2782 53.7153 29.3326 53.6339 29.3697 53.5443C29.4068 53.4547 29.4258 53.3587 29.4258 53.2617V8.52188H36.8613V14.6391C35.3595 15.2068 34.1044 16.2833 33.3145 17.6811C32.5247 19.079 32.2501 20.7095 32.5387 22.2889C32.8273 23.8683 33.6607 25.2965 34.8938 26.3247C36.1269 27.3529 37.6816 27.9161 39.2871 27.9161C40.8927 27.9161 42.4473 27.3529 43.6804 26.3247C44.9135 25.2965 45.7469 23.8683 46.0355 22.2889C46.3241 20.7095 46.0495 19.079 45.2597 17.6811C44.4698 16.2833 43.2147 15.2068 41.7129 14.6391V8.52188H49.1484V53.2617C49.1484 53.3587 49.1674 53.4547 49.2045 53.5443C49.2416 53.6339 49.296 53.7153 49.3646 53.7839C49.4331 53.8525 49.5145 53.9068 49.6041 53.9439C49.6937 53.981 49.7897 54.0001 49.8867 54H53.2617C53.3587 54.0001 53.4547 53.981 53.5443 53.9439C53.6339 53.9068 53.7153 53.8525 53.7839 53.7839C53.8525 53.7153 53.9068 53.6339 53.9439 53.5443C53.981 53.4547 54.0001 53.3587 54 53.2617V17.3496C54 17.1538 53.9222 16.966 53.7838 16.8276C53.6453 16.6891 53.4575 16.6113 53.2617 16.6113C53.0659 16.6113 52.8781 16.6891 52.7397 16.8276C52.6012 16.966 52.5234 17.1538 52.5234 17.3496V52.5234H50.625V1.47656H52.5234V12.201C52.5234 12.298 52.5424 12.394 52.5795 12.4836C52.6166 12.5732 52.671 12.6546 52.7396 12.7232C52.8081 12.7918 52.8895 12.8462 52.9791 12.8832C53.0687 12.9203 53.1647 12.9394 53.2617 12.9393ZM40.2363 5.14687V7.04531H38.3379V5.14687H40.2363ZM24.5742 17.4981H14.8188C14.623 17.4981 14.4352 17.5759 14.2967 17.7143C14.1583 17.8528 14.0805 18.0406 14.0805 18.2364C14.0805 18.4322 14.1583 18.62 14.2967 18.7584C14.4352 18.8969 14.623 18.9747 14.8188 18.9747H24.5742V24.5742H4.85156V18.9747H7.06598C7.26179 18.9747 7.44957 18.8969 7.58803 18.7584C7.72648 18.62 7.80427 18.4322 7.80427 18.2364C7.80427 18.0406 7.72648 17.8528 7.58803 17.7143C7.44957 17.5759 7.26179 17.4981 7.06598 17.4981H4.85156V15.5997H24.5742V17.4981ZM24.5742 27.9492H4.85156V26.0508H24.5742V27.9492ZM4.85156 29.4258H24.5742V35.0253H4.85156V29.4258ZM4.85156 36.5019H24.5742V38.4003H4.85156V36.5019ZM24.5742 14.1231H4.85156V8.52188H24.5742V14.1231ZM4.85156 39.8769H24.5742V45.4781H4.85156V39.8769ZM24.5742 5.14687V7.04531H4.85156V5.14687H24.5742ZM3.375 52.5234H1.47656V1.47656H3.375V52.5234ZM4.85156 48.8531V46.9547H24.5742V48.8531H4.85156ZM27.9492 52.5234H26.0508V1.47656H27.9492V52.5234ZM29.4258 7.04531V5.14687H36.8613V7.04531H29.4258ZM38.0953 19.4417C38.1542 19.3985 38.2155 19.3587 38.2788 19.3223C38.316 19.3004 38.3535 19.2801 38.3923 19.2607C38.4643 19.2243 38.5384 19.1923 38.6142 19.1649C38.6395 19.1561 38.6657 19.1489 38.6914 19.1409C39.08 19.0223 39.4951 19.0223 39.8836 19.1409C39.9094 19.1489 39.9355 19.1561 39.9608 19.1649C40.0367 19.1923 40.1108 19.2243 40.1828 19.2607C40.2216 19.2801 40.2591 19.3004 40.2967 19.3223C40.3599 19.3586 40.421 19.3985 40.4798 19.4417C40.8201 19.6927 41.0726 20.0448 41.2011 20.4477C41.3296 20.8507 41.3277 21.2839 41.1955 21.6856C41.0634 22.0874 40.8078 22.4372 40.4652 22.6852C40.1226 22.9332 39.7105 23.0667 39.2875 23.0667C38.8646 23.0667 38.4525 22.9332 38.1099 22.6852C37.7672 22.4372 37.5117 22.0874 37.3795 21.6856C37.2474 21.2839 37.2454 20.8507 37.374 20.4477C37.5025 20.0448 37.7549 19.6927 38.0953 19.4417ZM40.1655 17.6804C40.06 17.6525 39.9524 17.6302 39.8436 17.6124C39.8014 17.6057 39.7592 17.5985 39.7195 17.5935C39.4329 17.5541 39.1422 17.5541 38.8555 17.5935C38.8133 17.5985 38.7712 17.6057 38.7315 17.6124C38.6227 17.6302 38.5151 17.6546 38.4096 17.6804C38.386 17.6863 38.3615 17.6888 38.3383 17.6951V15.7545L38.4075 15.7423C38.4265 15.7389 38.4455 15.7364 38.4645 15.7334C38.5433 15.7207 38.6227 15.7098 38.7015 15.7009C38.7471 15.6959 38.7922 15.6904 38.8374 15.6866C38.9593 15.6765 39.0821 15.6697 39.2057 15.668H39.3694C39.493 15.668 39.6157 15.6765 39.7377 15.6866C39.7828 15.6904 39.828 15.6959 39.8735 15.7009C39.9524 15.7098 40.0317 15.7207 40.1106 15.7334C40.1296 15.7364 40.1486 15.7389 40.1676 15.7423L40.2368 15.7545V17.6951C40.2131 17.6888 40.1887 17.6863 40.165 17.6804H40.1655ZM44.6711 21.049C44.6722 22.0071 44.4176 22.9481 43.9336 23.7749C43.4496 24.6018 42.7537 25.2844 41.9177 25.7525C41.0818 26.2206 40.1361 26.4571 39.1782 26.4376C38.2203 26.4182 37.285 26.1434 36.4687 25.6418C35.6525 25.1402 34.9849 24.4298 34.5349 23.584C34.0848 22.7382 33.8687 21.7876 33.9087 20.8304C33.9487 19.8731 34.2434 18.9439 34.7625 18.1386C35.2815 17.3333 36.0061 16.6811 36.8613 16.2494V18.552C36.3631 19.0349 36.0204 19.6557 35.8771 20.3346C35.7338 21.0135 35.7965 21.7198 36.057 22.3629C36.3176 23.006 36.7642 23.5567 37.3397 23.9445C37.9151 24.3322 38.5932 24.5394 39.2871 24.5394C39.981 24.5394 40.6591 24.3322 41.2346 23.9445C41.81 23.5567 42.2566 23.006 42.5172 22.3629C42.7777 21.7198 42.8404 21.0135 42.6971 20.3346C42.5538 19.6557 42.2111 19.0349 41.7129 18.552V16.2494C42.6012 16.698 43.3479 17.384 43.87 18.2313C44.3921 19.0785 44.6692 20.0538 44.6707 21.049H44.6711ZM40.2368 14.2568C40.1946 14.2509 40.1553 14.2488 40.1144 14.2438C40.0385 14.2345 39.9625 14.2256 39.8857 14.2193C39.6862 14.2012 39.4867 14.1889 39.2875 14.1889C39.0884 14.1889 38.8889 14.2012 38.6893 14.2193C38.6125 14.2256 38.5366 14.2345 38.4607 14.2438C38.4185 14.2488 38.3792 14.2509 38.3383 14.2568V8.52188H40.2368V14.2568ZM41.7133 7.04658V5.14687H49.1484V7.04531L41.7133 7.04658Z" fill="#36383F"/>
</g>
<defs>
<clipPath id="clip0_2_1396">
<rect width="54" height="54" fill="white"/>
</clipPath>
</defs>
</svg>
