<svg width="55" height="55" viewBox="0 0 55 55" fill="none" xmlns="http://www.w3.org/2000/svg">
<g id="carpenter 1" clip-path="url(#clip0_2_1440)">
<path id="Vector 33" d="M11 11V15H15L15.5 11L17 10L26 11L33 10L34.5 10.5C34.3333 12 34.4 15 36 15H39.5V11C39.5 7.5 36 1 30 1H20C14 1 11 7.5 11 11Z" fill="#F04716"/>
<g id="Vector 34">
<path d="M12.5 50.5H2.5V54H12.5V50.5Z" fill="#4788FF"/>
<path d="M38 54V50.5H48V54H38Z" fill="#4788FF"/>
<path d="M25.5 41.5L28.5 44L34.5 38.5H30.5L25.5 41.5Z" fill="#4788FF"/>
<path d="M20.5 38.5L24.5 41.5L24 42.5L20 44.5L18 43.5L16.5 38.5H20.5Z" fill="#4788FF"/>
</g>
<path id="Vector 35" d="M37 15H13.5V21.5L19 24L21 23L25 18.5L29 23L31.5 24L37 21.5V15Z" fill="#A3A6B2"/>
<g id="Group">
<g id="Group_2">
<path id="Vector" d="M10.3309 17.9243C9.88588 17.9243 9.52527 18.285 9.52527 18.73V22.2439C9.52527 22.6888 9.88588 23.0495 10.3309 23.0495C10.776 23.0495 11.1366 22.6888 11.1366 22.2439V18.73C11.1366 18.285 10.776 17.9243 10.3309 17.9243Z" fill="#36383F"/>
<path id="Vector_2" d="M40.0176 23.0495C40.4627 23.0495 40.8233 22.6888 40.8233 22.2439V18.73C40.8233 18.285 40.4627 17.9243 40.0176 17.9243C39.5726 17.9243 39.212 18.285 39.212 18.73V22.2439C39.212 22.6888 39.5726 23.0495 40.0176 23.0495Z" fill="#36383F"/>
<path id="Vector_3" d="M25.1742 29.738C26.021 29.738 26.8376 29.382 27.4149 28.7612C27.7179 28.4353 27.6994 27.9256 27.3735 27.6226C27.0475 27.3194 26.538 27.3381 26.2349 27.6639C25.9574 27.9624 25.5807 28.1267 25.1741 28.1267C24.7675 28.1267 24.3908 27.9624 24.1133 27.6639C23.8104 27.3381 23.3005 27.3195 22.9746 27.6226C22.6488 27.9255 22.6302 28.4353 22.9333 28.7612C23.5108 29.382 24.3274 29.738 25.1742 29.738Z" fill="#36383F"/>
<path id="Vector_4" d="M44.8595 34.5475L36.3724 43.0346C36.0578 43.3493 36.0578 43.8594 36.3724 44.1739C36.5298 44.3312 36.736 44.41 36.9422 44.41C37.1484 44.41 37.3546 44.3313 37.5119 44.1739L45.999 35.6869C46.3136 35.3722 46.3136 34.8621 45.999 34.5475C45.6843 34.233 45.1742 34.233 44.8595 34.5475Z" fill="#36383F"/>
<path id="Vector_5" d="M34.7501 45.7963C34.4353 45.4816 33.9253 45.4816 33.6107 45.7963L25.7823 53.6246C25.4677 53.9393 25.4677 54.4494 25.7823 54.764C25.9397 54.9212 26.1459 55 26.3521 55C26.5582 55 26.7645 54.9213 26.9218 54.764L34.7502 46.9356C35.0646 46.6211 35.0646 46.1108 34.7501 45.7963Z" fill="#36383F"/>
<path id="Vector_6" d="M40.6416 43.6688C40.799 43.8262 41.0051 43.9048 41.2114 43.9048C41.4175 43.9048 41.6237 43.8262 41.7811 43.6688L49.7631 35.6869C50.0778 35.3723 50.0778 34.8622 49.7631 34.5476C49.4485 34.2331 48.9384 34.2329 48.6237 34.5476L40.6417 42.5295C40.3271 42.844 40.3271 43.3542 40.6416 43.6688Z" fill="#36383F"/>
<path id="Vector_7" d="M51.7214 33.7319L45.4652 27.4757C44.7644 26.775 43.624 26.775 42.9232 27.4759L32.6725 37.7319H29.0613V34.1766C32.8581 33.5384 35.8362 30.4624 36.3271 26.6182H38.7668C41.1034 26.6182 43.0042 24.6049 43.0042 22.1302V18.8434C43.0042 16.3687 41.1034 14.3555 38.7668 14.3555H38.7327V11.1045C38.7327 4.98158 33.7507 0 27.627 0H19.9685C16.8523 0 13.8604 1.32129 11.7598 3.62517C11.46 3.95398 11.4835 4.46359 11.8122 4.7633C12.141 5.06312 12.6508 5.0397 12.9505 4.71077C14.7464 2.74108 17.3045 1.61133 19.9685 1.61133H27.627C32.8622 1.61133 37.1215 5.87007 37.1215 11.1046V14.3556H35.2821C34.6629 14.3556 34.1961 13.865 34.1961 13.2145V11.5526C34.1961 10.9013 33.9133 10.2838 33.42 9.85864C32.9271 9.43368 32.2749 9.24483 31.632 9.34065L26.6474 10.0804C24.7633 10.36 22.8322 10.36 20.9481 10.0804L15.964 9.34076C15.3204 9.24451 14.6685 9.43368 14.1757 9.85864C13.6825 10.2838 13.3996 10.9013 13.3996 11.5527V13.2146C13.4075 13.9213 12.7557 14.4617 12.0001 14.3558H10.4742V11.1047C10.4742 9.98003 10.6687 8.87981 11.0524 7.8346C11.2057 7.41684 10.9914 6.95396 10.5736 6.80066C10.156 6.64716 9.693 6.86157 9.53971 7.27934C9.09058 8.50298 8.86284 9.79011 8.86284 11.1047V14.3558H8.82857C6.49204 14.3558 4.59121 16.3691 4.59121 18.8436V22.1304C4.59121 24.6051 6.49204 26.6184 8.82857 26.6184H11.2683C11.7593 30.4626 14.7373 33.5386 18.5342 34.1768V37.732H13.0335C8.63435 37.732 4.84988 40.892 3.82819 45.4174L2.8658 49.3499H1.97001C0.88376 49.3499 0 50.2337 0 51.3199V53.03C0 54.1162 0.88376 55 1.97001 55H10.8948C11.3399 55 11.7005 54.6393 11.7005 54.1943V46.76C11.7005 46.315 11.3399 45.9543 10.8948 45.9543C10.4498 45.9543 10.0892 46.315 10.0892 46.76V49.3498H4.52461L5.39494 45.7933C5.39612 45.7885 5.3972 45.7836 5.39838 45.7787C6.25109 41.9897 9.39071 39.3433 13.0334 39.3433H14.4509L15.4148 42.8785C15.9736 45.0985 18.8075 46.1763 20.7568 44.7211L23.7977 42.4555L26.1785 44.2293L16.7879 53.6248C16.4734 53.9395 16.4735 54.4496 16.7882 54.7641C16.9455 54.9214 17.1516 54.9999 17.3578 54.9999C17.564 54.9999 17.7703 54.9212 17.9276 54.7638L44.0627 28.6151C44.1353 28.5425 44.2535 28.5426 44.3259 28.6151L44.9836 29.2728L25.4023 48.854C25.0876 49.1686 25.0876 49.6787 25.4023 49.9933C25.5596 50.1507 25.7658 50.2293 25.972 50.2293C26.1782 50.2293 26.3844 50.1507 26.5418 49.9933L46.123 30.4122L50.5821 34.8713C50.6547 34.9438 50.6547 35.0619 50.5821 35.1345L32.0971 53.6247C31.7825 53.9394 31.7826 54.4495 32.0972 54.7641C32.412 55.0786 32.9221 55.0785 33.2365 54.764L35.8949 52.1049V54.1943C35.8949 54.6393 36.2555 55 36.7006 55H45.6254C46.7117 55 47.5954 54.1162 47.5954 53.03V51.3199C47.5954 50.2337 46.7117 49.3499 45.6254 49.3499H44.7297L43.7674 45.4176C43.6964 45.1034 43.6094 44.7927 43.5103 44.4874L51.7214 36.2739C52.4222 35.573 52.4222 34.4327 51.7214 33.7319ZM10.0892 53.3887H1.97001C1.77225 53.3887 1.61133 53.2278 1.61133 53.03V51.3199C1.61133 51.1222 1.77225 50.9613 1.97001 50.9613H10.0892V53.3887ZM23.7979 40.6453C22.9773 40.6453 22.2097 40.3221 21.6362 39.7351L20.1456 38.2096V34.3006H27.4499V38.2096L25.9597 39.735C25.3862 40.322 24.6185 40.6452 23.7979 40.6453ZM24.6899 20.3742V22.9998C24.6899 23.4902 24.2909 23.8892 23.8005 23.8892H23.795C23.3046 23.8892 22.9057 23.4903 22.9057 22.9998V20.3742C22.9057 19.8863 23.3007 19.4891 23.793 19.4851C24.1683 19.4819 24.6579 19.816 24.6899 20.3742ZM25.5684 18.3782C24.0672 17.3947 21.6557 17.9195 20.7904 19.7278L19.5779 21.9725C19.0474 22.9536 17.8614 23.3977 16.818 23.0051L14.7391 22.223C13.5842 21.7884 12.808 20.6682 12.8058 19.4346V15.967H34.7894V19.4372C34.7861 20.6698 34.0101 21.7887 32.8562 22.223L30.7771 23.0051C29.7343 23.3976 28.5479 22.9537 28.0176 21.9727L26.8048 19.7278C26.5251 19.1727 26.0978 18.7061 25.5684 18.3782ZM38.7669 15.967C40.2149 15.967 41.393 17.2574 41.393 18.8435V22.1303C41.393 23.7165 40.2149 25.007 38.7669 25.007H36.401L36.4013 15.967H38.7669ZM15.0108 13.2145V11.5526C15.0108 11.3033 15.1467 11.1489 15.2278 11.079C15.3086 11.0092 15.4808 10.8976 15.727 10.9345L20.7116 11.6742C22.7515 11.9768 24.8438 11.9768 26.8837 11.6742L31.8687 10.9344C32.1143 10.8978 32.2868 11.0092 32.3678 11.079C32.4488 11.1488 32.5847 11.3031 32.5847 11.5525V13.2144C32.5847 13.6239 32.6688 14.0094 32.8196 14.3555H14.776C14.9267 14.0095 15.0108 13.624 15.0108 13.2145ZM6.20243 22.1303V18.8435C6.20243 17.2573 7.38053 15.967 8.82847 15.967H11.1942L11.1944 25.007H8.82857C7.38053 25.007 6.20243 23.7165 6.20243 22.1303ZM12.8059 25.4977V22.9203C13.2043 23.2629 13.6642 23.5401 14.1718 23.7311L16.2507 24.5132C18.044 25.1882 20.0838 24.4253 20.9956 22.7385L21.2943 22.1855V22.9998C21.2943 24.3786 22.4162 25.5006 23.795 25.5006H23.8005C25.1795 25.5006 26.3013 24.3787 26.3013 22.9998V22.1856L26.6001 22.7388C27.2881 24.0114 28.6182 24.7579 30 24.7578C30.4496 24.7578 30.9046 24.6788 31.3447 24.5132L33.4238 23.7311C33.9313 23.5401 34.3912 23.2629 34.7896 22.9204V25.4977C34.7896 29.4631 31.5636 32.6892 27.5982 32.6892H19.9974C16.032 32.6892 12.8059 29.463 12.8059 25.4977ZM19.7943 43.4291C18.9386 44.1142 17.2885 43.74 16.9695 42.4546L16.1212 39.3433H19.0006L20.4838 40.8612C20.8992 41.2863 21.3816 41.62 21.9071 41.8549L19.7943 43.4291ZM25.6885 41.8551C26.2142 41.6201 26.6967 41.2864 27.1121 40.8611L28.5949 39.3434H31.0619L27.3199 43.0873C27.2877 43.0528 25.6885 41.8551 25.6885 41.8551ZM45.9841 51.3198V53.0299C45.9841 53.2276 45.8232 53.3886 45.6254 53.3886H37.5062V50.961H45.6254C45.8232 50.9612 45.9841 51.1221 45.9841 51.3198ZM43.0708 49.3498H38.6491L42.2013 45.7966L43.0708 49.3498Z" fill="#36383F"/>
</g>
</g>
</g>
<defs>
<clipPath id="clip0_2_1440">
<rect width="55" height="55" fill="white"/>
</clipPath>
</defs>
</svg>
