<svg width="180" height="43" viewBox="0 0 180 43" fill="none" xmlns="http://www.w3.org/2000/svg">
<g id="SPORTOVA_logo">
<path id="Union" fill-rule="evenodd" clip-rule="evenodd" d="M0 14.2789V28.6441C0 31.2113 1.36762 33.5823 3.58522 34.8597L15.9331 41.9728C18.125 43.2355 20.8184 43.2401 23.0146 41.985L35.4895 34.8555C37.719 33.5813 39.0959 31.2036 39.0959 28.6278V14.2953C39.0959 11.7194 37.719 9.34174 35.4895 8.06756L23.0146 0.938094C20.8184 -0.317026 18.125 -0.312396 15.9331 0.950254L3.58521 8.06334C1.36762 9.34081 0 11.7118 0 14.2789ZM3.10285 28.6441V14.2789C3.10285 12.8279 3.87585 11.4878 5.12928 10.7658L7.91227 9.1626V33.7605L5.12928 32.1573C3.87586 31.4353 3.10285 30.0951 3.10285 28.6441ZM14.118 37.3353L17.4772 39.2704C18.7161 39.9841 20.2384 39.9867 21.4797 39.2773L32.6869 32.8723H13.9628C13.106 32.8723 12.4114 32.1749 12.4114 31.3145C12.4114 30.4542 13.106 29.7567 13.9628 29.7567H35.8333C35.938 29.3948 35.9931 29.0152 35.9931 28.6278V16.9829H13.9628C13.106 16.9829 12.4114 16.2854 12.4114 15.4251C12.4114 14.5648 13.106 13.8673 13.9628 13.8673H35.9706C35.8345 12.5798 35.0903 11.4243 33.9547 10.7753L21.4797 3.6458C20.2384 2.93639 18.7161 2.939 17.4772 3.65267L14.118 5.58775V12.6211C12.5757 12.6211 11.3254 13.8765 11.3254 15.4251C11.3254 16.9737 12.5757 18.2291 14.118 18.2291V28.5105C12.5757 28.5105 11.3254 29.7659 11.3254 31.3145C11.3254 32.8631 12.5757 34.1185 14.118 34.1185V37.3353Z" fill="white"/>
<g id="SPORTOVA">
<path d="M53.1613 24.5799C51.9449 24.5799 50.7644 24.4297 49.6196 24.1292C48.4749 23.8288 47.5447 23.4282 46.8293 22.9274L48.2244 19.794C48.897 20.2375 49.6769 20.5952 50.5641 20.8671C51.4513 21.1389 52.3241 21.2749 53.1827 21.2749C54.814 21.2749 55.6297 20.8671 55.6297 20.0515C55.6297 19.6223 55.3936 19.3075 54.9213 19.1072C54.4634 18.8926 53.7193 18.6709 52.689 18.4419C51.5586 18.1987 50.6141 17.9412 49.8557 17.6693C49.0973 17.3832 48.4462 16.9325 47.9025 16.3172C47.3587 15.702 47.0868 14.8722 47.0868 13.8277C47.0868 12.912 47.3372 12.0893 47.8381 11.3596C48.3389 10.6156 49.083 10.029 50.0704 9.59978C51.0721 9.17055 52.2955 8.95593 53.7408 8.95593C54.7282 8.95593 55.7012 9.07039 56.66 9.29932C57.6187 9.51393 58.463 9.83586 59.1928 10.2651L57.8834 13.4199C56.4525 12.6473 55.0644 12.261 53.7193 12.261C52.8751 12.261 52.2598 12.3898 51.8734 12.6473C51.487 12.8905 51.2939 13.2125 51.2939 13.6131C51.2939 14.0137 51.5228 14.3142 51.9807 14.5145C52.4386 14.7148 53.1756 14.9222 54.1916 15.1369C55.3363 15.3801 56.2808 15.6448 57.0249 15.9309C57.7833 16.2028 58.4344 16.6463 58.9781 17.2615C59.5362 17.8625 59.8152 18.6852 59.8152 19.7296C59.8152 20.631 59.5648 21.4465 59.064 22.1762C58.5631 22.9059 57.8119 23.4925 56.8102 23.9361C55.8085 24.3653 54.5922 24.5799 53.1613 24.5799Z" fill="white"/>
<path d="M69.5056 9.25639C70.865 9.25639 72.0455 9.48532 73.0472 9.94316C74.0489 10.3867 74.8216 11.0305 75.3654 11.8747C75.9091 12.7045 76.181 13.6846 76.181 14.8149C76.181 15.9452 75.9091 16.9253 75.3654 17.7552C74.8216 18.585 74.0489 19.2289 73.0472 19.6867C72.0455 20.1302 70.865 20.352 69.5056 20.352H66.8869V24.2795H62.637V9.25639H69.5056ZM69.248 17.004C70.1209 17.004 70.7791 16.818 71.2227 16.446C71.6663 16.0597 71.8881 15.516 71.8881 14.8149C71.8881 14.1139 71.6663 13.5702 71.2227 13.1839C70.7791 12.7975 70.1209 12.6044 69.248 12.6044H66.8869V17.004H69.248Z" fill="white"/>
<path d="M86.8983 24.5799C85.31 24.5799 83.879 24.2437 82.6054 23.5712C81.3462 22.8988 80.3517 21.9688 79.6219 20.7812C78.9064 19.5937 78.5487 18.2559 78.5487 16.7679C78.5487 15.2799 78.9064 13.9422 79.6219 12.7546C80.3517 11.5671 81.3462 10.6371 82.6054 9.96463C83.879 9.29216 85.31 8.95593 86.8983 8.95593C88.4867 8.95593 89.9105 9.29216 91.1697 9.96463C92.4433 10.6371 93.4378 11.5671 94.1533 12.7546C94.8831 13.9422 95.248 15.2799 95.248 16.7679C95.248 18.2559 94.8831 19.5937 94.1533 20.7812C93.4378 21.9688 92.4433 22.8988 91.1697 23.5712C89.9105 24.2437 88.4867 24.5799 86.8983 24.5799ZM86.8983 21.0602C87.6567 21.0602 88.3436 20.8814 88.9589 20.5237C89.5742 20.166 90.0607 19.6652 90.4185 19.0214C90.7762 18.3632 90.9551 17.6121 90.9551 16.7679C90.9551 15.9238 90.7762 15.1798 90.4185 14.5359C90.0607 13.8778 89.5742 13.3699 88.9589 13.0122C88.3436 12.6545 87.6567 12.4756 86.8983 12.4756C86.1399 12.4756 85.453 12.6545 84.8377 13.0122C84.2224 13.3699 83.7359 13.8778 83.3782 14.5359C83.0204 15.1798 82.8415 15.9238 82.8415 16.7679C82.8415 17.6121 83.0204 18.3632 83.3782 19.0214C83.7359 19.6652 84.2224 20.166 84.8377 20.5237C85.453 20.8814 86.1399 21.0602 86.8983 21.0602Z" fill="white"/>
<path d="M104.901 20.2876H102.582V24.2795H98.3325V9.25639H105.201C106.561 9.25639 107.741 9.48532 108.743 9.94316C109.744 10.3867 110.517 11.0305 111.061 11.8747C111.605 12.7045 111.877 13.6846 111.877 14.8149C111.877 15.9023 111.619 16.8538 111.104 17.6693C110.603 18.4705 109.88 19.1001 108.936 19.5579L112.177 24.2795H107.627L104.901 20.2876ZM107.584 14.8149C107.584 14.1139 107.362 13.5702 106.918 13.1839C106.475 12.7975 105.816 12.6044 104.944 12.6044H102.582V17.004H104.944C105.816 17.004 106.475 16.818 106.918 16.446C107.362 16.0597 107.584 15.516 107.584 14.8149Z" fill="white"/>
<path d="M118.068 12.6259H113.454V9.25639H126.912V12.6259H122.318V24.2795H118.068V12.6259Z" fill="white"/>
<path d="M136.721 24.5799C135.133 24.5799 133.702 24.2437 132.428 23.5712C131.169 22.8988 130.174 21.9688 129.445 20.7812C128.729 19.5937 128.371 18.2559 128.371 16.7679C128.371 15.2799 128.729 13.9422 129.445 12.7546C130.174 11.5671 131.169 10.6371 132.428 9.96463C133.702 9.29216 135.133 8.95593 136.721 8.95593C138.309 8.95593 139.733 9.29216 140.992 9.96463C142.266 10.6371 143.26 11.5671 143.976 12.7546C144.706 13.9422 145.071 15.2799 145.071 16.7679C145.071 18.2559 144.706 19.5937 143.976 20.7812C143.26 21.9688 142.266 22.8988 140.992 23.5712C139.733 24.2437 138.309 24.5799 136.721 24.5799ZM136.721 21.0602C137.479 21.0602 138.166 20.8814 138.782 20.5237C139.397 20.166 139.883 19.6652 140.241 19.0214C140.599 18.3632 140.778 17.6121 140.778 16.7679C140.778 15.9238 140.599 15.1798 140.241 14.5359C139.883 13.8778 139.397 13.3699 138.782 13.0122C138.166 12.6545 137.479 12.4756 136.721 12.4756C135.963 12.4756 135.276 12.6545 134.66 13.0122C134.045 13.3699 133.559 13.8778 133.201 14.5359C132.843 15.1798 132.664 15.9238 132.664 16.7679C132.664 17.6121 132.843 18.3632 133.201 19.0214C133.559 19.6652 134.045 20.166 134.66 20.5237C135.276 20.8814 135.963 21.0602 136.721 21.0602Z" fill="white"/>
<path d="M162.871 9.25639L156.432 24.2795H152.246L145.828 9.25639H150.421L154.5 19.0429L158.664 9.25639H162.871Z" fill="white"/>
<path d="M174.152 21.3607H167.798L166.618 24.2795H162.282L168.914 9.25639H173.1L179.754 24.2795H175.332L174.152 21.3607ZM172.907 18.2273L170.975 13.4199L169.043 18.2273H172.907Z" fill="white"/>
</g>
<g id="&#209;&#129;&#208;&#191;&#208;&#190;&#209;&#128;&#209;&#130;&#208;&#184;&#208;&#178;&#208;&#189;&#209;&#139;&#208;&#181; &#208;&#186;&#208;&#190;&#208;&#188;&#208;&#191;&#208;&#187;&#208;&#181;&#208;&#186;&#209;&#129;&#209;&#139;">
<path d="M49.5753 34.122C49.1595 34.122 48.7836 34.0301 48.4478 33.8462C48.1159 33.6623 47.854 33.4084 47.6621 33.0846C47.4742 32.7568 47.3802 32.391 47.3802 31.9872C47.3802 31.5834 47.4742 31.2196 47.6621 30.8958C47.854 30.568 48.1179 30.3122 48.4538 30.1283C48.7896 29.9444 49.1654 29.8524 49.5813 29.8524C49.8931 29.8524 50.181 29.9044 50.4449 30.0083C50.7088 30.1123 50.9327 30.2642 51.1166 30.4641L50.8347 30.7459C50.5069 30.4141 50.093 30.2482 49.5933 30.2482C49.2614 30.2482 48.9595 30.3241 48.6877 30.4761C48.4158 30.628 48.2019 30.8359 48.0459 31.0997C47.894 31.3636 47.818 31.6594 47.818 31.9872C47.818 32.315 47.894 32.6109 48.0459 32.8747C48.2019 33.1386 48.4158 33.3464 48.6877 33.4984C48.9595 33.6503 49.2614 33.7262 49.5933 33.7262C50.097 33.7262 50.5109 33.5583 50.8347 33.2225L51.1166 33.5043C50.9327 33.7042 50.7068 33.8582 50.4389 33.9661C50.175 34.07 49.8871 34.122 49.5753 34.122Z" fill="white"/>
<path d="M57.8446 29.8884V34.086H57.4068V30.2722H54.75V34.086H54.3122V29.8884H57.8446Z" fill="white"/>
<path d="M63.3814 34.122C62.9656 34.122 62.5878 34.0301 62.2479 33.8462C61.912 33.6583 61.6482 33.4024 61.4562 33.0786C61.2683 32.7548 61.1744 32.391 61.1744 31.9872C61.1744 31.5834 61.2683 31.2196 61.4562 30.8958C61.6482 30.572 61.912 30.3182 62.2479 30.1343C62.5878 29.9464 62.9656 29.8524 63.3814 29.8524C63.7972 29.8524 64.1711 29.9444 64.5029 30.1283C64.8388 30.3122 65.1027 30.568 65.2946 30.8958C65.4865 31.2196 65.5825 31.5834 65.5825 31.9872C65.5825 32.391 65.4865 32.7568 65.2946 33.0846C65.1027 33.4084 64.8388 33.6623 64.5029 33.8462C64.1711 34.0301 63.7972 34.122 63.3814 34.122ZM63.3814 33.7262C63.7133 33.7262 64.0131 33.6523 64.281 33.5043C64.5489 33.3524 64.7588 33.1446 64.9108 32.8807C65.0627 32.6129 65.1387 32.315 65.1387 31.9872C65.1387 31.6594 65.0627 31.3636 64.9108 31.0997C64.7588 30.8319 64.5489 30.624 64.281 30.4761C64.0131 30.3241 63.7133 30.2482 63.3814 30.2482C63.0496 30.2482 62.7477 30.3241 62.4758 30.4761C62.2079 30.624 61.996 30.8319 61.8401 31.0997C61.6881 31.3636 61.6122 31.6594 61.6122 31.9872C61.6122 32.315 61.6881 32.6129 61.8401 32.8807C61.996 33.1446 62.2079 33.3524 62.4758 33.5043C62.7477 33.6523 63.0496 33.7262 63.3814 33.7262Z" fill="white"/>
<path d="M70.4919 29.8884C71.0276 29.8884 71.4475 30.0163 71.7513 30.2722C72.0552 30.528 72.2071 30.8798 72.2071 31.3276C72.2071 31.7753 72.0552 32.1271 71.7513 32.383C71.4475 32.6348 71.0276 32.7608 70.4919 32.7608H69.3644V34.086H68.9205V29.8884H70.4919ZM70.4799 32.371C70.8957 32.371 71.2136 32.281 71.4335 32.1011C71.6534 31.9172 71.7633 31.6594 71.7633 31.3276C71.7633 30.9878 71.6534 30.7279 71.4335 30.548C71.2136 30.3641 70.8957 30.2722 70.4799 30.2722H69.3644V32.371H70.4799Z" fill="white"/>
<path d="M78.0052 30.2722H76.5298V34.086H76.092V30.2722H74.6166V29.8884H78.0052V30.2722Z" fill="white"/>
<path d="M81.0632 29.8884H81.501V33.3664L84.1879 29.8884H84.5897V34.086H84.1519V30.614L81.465 34.086H81.0632V29.8884Z" fill="white"/>
<path d="M90.7743 31.9212C91.0662 31.9812 91.2881 32.0991 91.44 32.275C91.592 32.4469 91.6679 32.6728 91.6679 32.9527C91.6679 33.3165 91.538 33.5963 91.2781 33.7922C91.0222 33.9881 90.6444 34.086 90.1446 34.086H88.2854V29.8884H90.0306C90.4785 29.8884 90.8283 29.9803 91.0802 30.1642C91.3321 30.3481 91.458 30.614 91.458 30.9618C91.458 31.1977 91.3981 31.3975 91.2781 31.5614C91.1582 31.7214 90.9902 31.8413 90.7743 31.9212ZM88.7232 31.7893H90.0067C90.3305 31.7893 90.5784 31.7234 90.7503 31.5914C90.9263 31.4595 91.0142 31.2676 91.0142 31.0158C91.0142 30.7639 90.9263 30.572 90.7503 30.4401C90.5784 30.3082 90.3305 30.2422 90.0067 30.2422H88.7232V31.7893ZM90.1446 33.7322C90.8683 33.7322 91.2301 33.4624 91.2301 32.9227C91.2301 32.395 90.8683 32.1311 90.1446 32.1311H88.7232V33.7322H90.1446Z" fill="white"/>
<path d="M98.5651 29.8884V34.086H98.1273V32.1491H95.5004V34.086H95.0566V29.8884H95.5004V31.7593H98.1273V29.8884H98.5651Z" fill="white"/>
<path d="M104.018 31.3875C104.514 31.3875 104.892 31.4995 105.152 31.7234C105.416 31.9472 105.548 32.275 105.548 32.7068C105.548 33.1585 105.408 33.5024 105.128 33.7382C104.852 33.9701 104.452 34.086 103.929 34.086H102.261V29.8884H102.699V31.3875H104.018ZM103.917 33.7322C104.304 33.7322 104.598 33.6463 104.798 33.4744C105.002 33.3025 105.104 33.0486 105.104 32.7128C105.104 32.0692 104.708 31.7473 103.917 31.7473H102.699V33.7322H103.917ZM106.274 29.8884H106.711V34.086H106.274V29.8884Z" fill="white"/>
<path d="M113.372 33.7022V34.086H110.403V29.8884H113.282V30.2722H110.847V31.7653H113.018V32.1431H110.847V33.7022H113.372Z" fill="white"/>
<path d="M121.875 32.1611H120.916V34.086H120.484V29.8884H120.916V31.7713H121.875L123.297 29.8884H123.777L122.217 31.9272L123.867 34.086H123.357L121.875 32.1611Z" fill="white"/>
<path d="M128.663 34.122C128.247 34.122 127.869 34.0301 127.53 33.8462C127.194 33.6583 126.93 33.4024 126.738 33.0786C126.55 32.7548 126.456 32.391 126.456 31.9872C126.456 31.5834 126.55 31.2196 126.738 30.8958C126.93 30.572 127.194 30.3182 127.53 30.1343C127.869 29.9464 128.247 29.8524 128.663 29.8524C129.079 29.8524 129.453 29.9444 129.785 30.1283C130.12 30.3122 130.384 30.568 130.576 30.8958C130.768 31.2196 130.864 31.5834 130.864 31.9872C130.864 32.391 130.768 32.7568 130.576 33.0846C130.384 33.4084 130.12 33.6623 129.785 33.8462C129.453 34.0301 129.079 34.122 128.663 34.122ZM128.663 33.7262C128.995 33.7262 129.295 33.6523 129.563 33.5043C129.831 33.3524 130.04 33.1446 130.192 32.8807C130.344 32.6129 130.42 32.315 130.42 31.9872C130.42 31.6594 130.344 31.3636 130.192 31.0997C130.04 30.8319 129.831 30.624 129.563 30.4761C129.295 30.3241 128.995 30.2482 128.663 30.2482C128.331 30.2482 128.029 30.3241 127.757 30.4761C127.49 30.624 127.278 30.8319 127.122 31.0997C126.97 31.3636 126.894 31.6594 126.894 31.9872C126.894 32.315 126.97 32.6129 127.122 32.8807C127.278 33.1446 127.49 33.3524 127.757 33.5043C128.029 33.6523 128.331 33.7262 128.663 33.7262Z" fill="white"/>
<path d="M138.562 29.8884V34.086H138.136V30.7279L136.487 33.5523H136.277L134.628 30.7459V34.086H134.202V29.8884H134.568L136.391 33.0006L138.196 29.8884H138.562Z" fill="white"/>
<path d="M145.789 29.8884V34.086H145.351V30.2722H142.694V34.086H142.256V29.8884H145.789Z" fill="white"/>
<path d="M152.712 29.8884V34.086H152.274V30.2722H150.247L150.199 31.6754C150.179 32.2551 150.131 32.7228 150.055 33.0786C149.983 33.4304 149.871 33.6942 149.72 33.8701C149.568 34.042 149.366 34.128 149.114 34.128C149.006 34.128 148.894 34.114 148.778 34.086L148.814 33.6902C148.882 33.7062 148.948 33.7142 149.012 33.7142C149.188 33.7142 149.33 33.6443 149.438 33.5043C149.55 33.3644 149.634 33.1486 149.69 32.8567C149.746 32.5609 149.784 32.1711 149.804 31.6874L149.863 29.8884H152.712Z" fill="white"/>
<path d="M159.376 33.7022V34.086H156.408V29.8884H159.286V30.2722H156.851V31.7653H159.022V32.1431H156.851V33.7022H159.376Z" fill="white"/>
<path d="M164.031 32.1611H163.072V34.086H162.64V29.8884H163.072V31.7713H164.031L165.453 29.8884H165.933L164.373 31.9272L166.023 34.086H165.513L164.031 32.1611Z" fill="white"/>
<path d="M170.813 34.122C170.397 34.122 170.021 34.0301 169.686 33.8462C169.354 33.6623 169.092 33.4084 168.9 33.0846C168.712 32.7568 168.618 32.391 168.618 31.9872C168.618 31.5834 168.712 31.2196 168.9 30.8958C169.092 30.568 169.356 30.3122 169.692 30.1283C170.027 29.9444 170.403 29.8524 170.819 29.8524C171.131 29.8524 171.419 29.9044 171.683 30.0083C171.947 30.1123 172.17 30.2642 172.354 30.4641L172.072 30.7459C171.745 30.4141 171.331 30.2482 170.831 30.2482C170.499 30.2482 170.197 30.3241 169.925 30.4761C169.654 30.628 169.44 30.8359 169.284 31.0997C169.132 31.3636 169.056 31.6594 169.056 31.9872C169.056 32.315 169.132 32.6109 169.284 32.8747C169.44 33.1386 169.654 33.3464 169.925 33.4984C170.197 33.6503 170.499 33.7262 170.831 33.7262C171.335 33.7262 171.749 33.5583 172.072 33.2225L172.354 33.5043C172.17 33.7042 171.945 33.8582 171.677 33.9661C171.413 34.07 171.125 34.122 170.813 34.122Z" fill="white"/>
<path d="M177.307 31.3875C177.803 31.3875 178.181 31.4995 178.441 31.7234C178.705 31.9472 178.836 32.275 178.836 32.7068C178.836 33.1585 178.697 33.5024 178.417 33.7382C178.141 33.9701 177.741 34.086 177.217 34.086H175.55V29.8884H175.988V31.3875H177.307ZM177.205 33.7322C177.593 33.7322 177.887 33.6463 178.087 33.4744C178.291 33.3025 178.393 33.0486 178.393 32.7128C178.393 32.0692 177.997 31.7473 177.205 31.7473H175.988V33.7322H177.205ZM179.562 29.8884H180V34.086H179.562V29.8884Z" fill="white"/>
</g>
</g>
</svg>
