<svg width="78" height="78" viewBox="0 0 78 78" fill="none" xmlns="http://www.w3.org/2000/svg">
<g id="Barbell racks">
<rect id="Rectangle 87" x="8.89478" y="36.2632" width="4.10526" height="8.89474" fill="#4788FF"/>
<rect id="Rectangle 90" x="12.3157" y="32.1579" width="4.10527" height="17.1053" fill="#F04716"/>
<rect id="Rectangle 88" x="65" y="36.2632" width="4.10526" height="8.89474" fill="#4788FF"/>
<rect id="Rectangle 89" x="61.5789" y="32.1579" width="4.10527" height="17.1053" fill="#F04716"/>
<rect id="Rectangle 91" x="17.7896" y="20.5263" width="42.4211" height="6.1579" fill="#A3A6B2"/>
<path id="Union" fill-rule="evenodd" clip-rule="evenodd" d="M21.5526 15.0526C20.9857 15.0526 20.5262 15.5121 20.5262 16.0789V19.8421H17.4473C16.8805 19.8421 16.421 20.3016 16.421 20.8684V21.2105H10.6052C9.28261 21.2105 8.21045 22.2827 8.21045 23.6052C8.21045 24.9278 9.28261 26 10.6052 26H16.421V26.3421C16.421 26.9089 16.8805 27.3684 17.4473 27.3684H20.5262V37.6316H17.7894V33.8684C17.7894 32.1679 16.4109 30.7894 14.7104 30.7894C13.01 30.7894 11.6315 32.1679 11.6315 33.8684V34.9809C11.4128 34.9246 11.1835 34.8947 10.9473 34.8947C9.43578 34.8947 8.21045 36.12 8.21045 37.6316V43.7894C8.21045 45.301 9.43578 46.5263 10.9473 46.5263C11.1835 46.5263 11.4128 46.4963 11.6315 46.4401V47.5526C11.6315 49.2531 13.01 50.6315 14.7104 50.6315C16.4109 50.6315 17.7894 49.2531 17.7894 47.5526V43.7894H20.5262V56.7064L16.338 60.8947H9.23676C8.66995 60.8947 8.21045 61.3542 8.21045 61.921C8.21045 62.4878 8.66995 62.9473 9.23676 62.9473H68.7631C69.3299 62.9473 69.7894 62.4878 69.7894 61.921C69.7894 61.3542 69.3299 60.8947 68.7631 60.8947H61.6619L57.4736 56.7064V43.7894H60.2104V47.5526C60.2104 49.2531 61.5889 50.6315 63.2894 50.6315C64.9898 50.6315 66.3683 49.2531 66.3683 47.5526V46.4401C66.587 46.4963 66.8163 46.5263 67.0526 46.5263C68.5641 46.5263 69.7894 45.301 69.7894 43.7894V37.6316C69.7894 36.12 68.5641 34.8947 67.0526 34.8947C66.8163 34.8947 66.587 34.9246 66.3683 34.9809V33.8684C66.3683 32.1679 64.9898 30.7894 63.2894 30.7894C61.5889 30.7894 60.2104 32.1679 60.2104 33.8684V37.6316H57.4736V27.3684H60.5526C61.1194 27.3684 61.5789 26.9089 61.5789 26.3421V26H67.3947C68.7172 26 69.7894 24.9278 69.7894 23.6052C69.7894 22.2827 68.7172 21.2105 67.3947 21.2105H61.5789V20.8684C61.5789 20.3016 61.1194 19.8421 60.5526 19.8421H57.4736V16.0789C57.4736 15.5121 57.0141 15.0526 56.4473 15.0526H51.6578C51.091 15.0526 50.6315 15.5121 50.6315 16.0789V19.8421H27.3683V16.0789C27.3683 15.5121 26.9088 15.0526 26.342 15.0526H21.5526ZM66.3683 37.6316V43.7894C66.3683 44.1673 66.6747 44.4737 67.0526 44.4737C67.4304 44.4737 67.7368 44.1673 67.7368 43.7894V37.6316C67.7368 37.2537 67.4304 36.9473 67.0526 36.9473C66.6747 36.9473 66.3683 37.2537 66.3683 37.6316ZM64.3157 33.8684C64.3157 33.3016 63.8562 32.8421 63.2894 32.8421C62.7226 32.8421 62.2631 33.3016 62.2631 33.8684V47.5526C62.2631 48.1194 62.7226 48.5789 63.2894 48.5789C63.8562 48.5789 64.3157 48.1194 64.3157 47.5526V33.8684ZM11.6315 43.7894V37.6316C11.6315 37.2537 11.3252 36.9473 10.9473 36.9473C10.5694 36.9473 10.2631 37.2537 10.2631 37.6316V43.7894C10.2631 44.1673 10.5694 44.4737 10.9473 44.4737C11.3252 44.4737 11.6315 44.1673 11.6315 43.7894ZM13.6841 47.5526C13.6841 48.1194 14.1436 48.5789 14.7104 48.5789C15.2773 48.5789 15.7368 48.1194 15.7368 47.5526V33.8684C15.7368 33.3016 15.2773 32.8421 14.7104 32.8421C14.1436 32.8421 13.6841 33.3016 13.6841 33.8684V47.5526ZM25.3157 19.8421H22.5789V17.1052H25.3157V19.8421ZM10.6052 23.2631H16.421V23.9473H10.6052C10.4162 23.9473 10.2631 23.7942 10.2631 23.6052C10.2631 23.4163 10.4162 23.2631 10.6052 23.2631ZM59.5262 21.8947H18.4736V25.3158H59.5262V21.8947ZM67.3947 23.9473H61.5789V23.2631H67.3947C67.5836 23.2631 67.7368 23.4163 67.7368 23.6052C67.7368 23.7942 67.5836 23.9473 67.3947 23.9473ZM22.5789 37.6316V27.3684H25.3157V37.6316H22.5789ZM27.3683 37.6316V27.3684H50.6315V37.6316H27.3683ZM52.6841 37.6316V27.3684H55.421V37.6316H52.6841ZM17.7894 41.7368V39.6842H60.2104V41.7368H17.7894ZM22.5789 60.8947V43.7894H25.3157V60.8947H22.5789ZM27.3683 56.7064V43.7894H50.6315V56.7064L46.4432 60.8947H31.5566L27.3683 56.7064ZM52.6841 60.8947V43.7894H55.421V60.8947H52.6841ZM58.759 60.8947H57.4736V59.6093L58.759 60.8947ZM50.6315 59.6093V60.8947H49.3461L50.6315 59.6093ZM27.3683 59.6093L28.6538 60.8947H27.3683V59.6093ZM20.5262 59.6093V60.8947H19.2408L20.5262 59.6093ZM55.421 17.1052V19.8421H52.6841V17.1052H55.421Z" fill="#36383F"/>
</g>
</svg>
