<svg width="78" height="78" viewBox="0 0 78 78" fill="none" xmlns="http://www.w3.org/2000/svg">
<g id="Fitness">
<g id="Vector 25">
<path d="M31.1315 55.079L29.0789 57.8158L31.1315 60.5527H33.8683V64.3158L36.9473 66.3684L39.8881 64.3158V60.5527H44.8157V55.079H39.8881V51.3158L36.9473 49.2632L33.8683 51.3158V55.079H31.1315Z" fill="#DEDFE7"/>
<path d="M54.3947 55.079V60.5527H58.842V63.9737L61.921 66.3684L64.9999 63.9737V60.5527H67.7368L69.7894 57.8158L67.3947 55.079H64.9999V51.6579L61.921 49.2632L58.842 51.6579V55.079H54.3947Z" fill="#DEDFE7"/>
</g>
<path id="Vector 24" d="M15.0526 30.4473L10.6052 32.1578C9.51051 28.0526 13.3421 22.2368 15.3947 19.842C15.3947 18.1315 16.7631 15.7367 19.1579 15.0525C21.5526 10.2631 25.6579 9.57888 29.7631 9.92097C33.5263 7.18412 38.3158 7.86835 41.7368 9.92097C48.3052 8.82623 51.5438 12.8859 52.3421 15.0525C55.3526 15.8736 56.1052 17.9034 56.1052 18.8157L57.1316 21.8946L60.2105 28.0525L61.2368 31.8157L56.4473 30.4473L54.3947 26.342H16.7631L15.0526 30.4473Z" fill="#F04716"/>
<g id="Vector 23">
<path d="M24.9738 55.079V70.1316H47.5527L44.4738 66.0263V60.5526H40.0264L39.3422 64.6579L37.6317 66.0263H36.2632L33.8685 63.6316L33.5264 60.5526H31.8159L29.079 59.1842V56.7895L24.9738 55.079Z" fill="#4788FF"/>
<path d="M15.3948 19.5L11.2896 26.3421H59.8685L56.1053 19.5H15.3948Z" fill="#4788FF"/>
</g>
<path id="Vector" d="M24.3679 35.5868C24.3679 34.8824 24.9411 34.3093 25.6454 34.3093C26.3499 34.3093 26.9231 34.8825 26.9231 35.5868C26.9231 36.1071 27.3449 36.529 27.8652 36.529C28.3855 36.529 28.8073 36.1071 28.8073 35.5868C28.8073 33.8434 27.3888 32.425 25.6454 32.425C23.902 32.425 22.4836 33.8435 22.4836 35.5868C22.4836 36.1071 22.9055 36.529 23.4258 36.529C23.9461 36.529 24.3679 36.1071 24.3679 35.5868Z" fill="#36383F"/>
<path id="Vector_2" d="M44.2099 35.5868C44.2099 34.8824 44.7831 34.3093 45.4875 34.3093C46.1919 34.3093 46.7651 34.8825 46.7651 35.5868C46.7651 36.1071 47.1869 36.529 47.7072 36.529C48.2275 36.529 48.6494 36.1071 48.6494 35.5868C48.6494 33.8434 47.2309 32.425 45.4875 32.425C43.744 32.425 42.3257 33.8435 42.3257 35.5868C42.3257 36.1071 42.7475 36.529 43.2678 36.529C43.7881 36.529 44.2099 36.1071 44.2099 35.5868Z" fill="#36383F"/>
<path id="Vector_3" d="M14.1437 43.0558C14.1692 43.0558 14.1952 43.0548 14.2208 43.0544C14.8957 45.2129 15.8994 47.2662 17.2134 49.1547C17.5104 49.5817 18.0974 49.6872 18.5248 49.39C18.9519 49.0928 19.0572 48.5057 18.7601 48.0786C17.4221 46.1555 16.4358 44.0453 15.8237 41.8236C15.8225 41.8196 15.8221 41.8154 15.821 41.8114C14.4421 36.7976 15.0455 31.509 17.2916 27.0675H54.0346C58.1087 35.1241 56.4005 44.8699 50.008 51.0924C49.8259 51.0723 49.5853 51.0561 49.3623 51.0561C49.3612 51.0561 49.3602 51.0561 49.3592 51.0561C47.1055 51.0576 45.0628 52.3561 44.1268 54.4216H40.8607V52.5563C40.8607 50.3684 39.0846 48.5672 36.8716 48.5672C34.6719 48.5672 32.8825 50.3568 32.8825 52.5563V54.4216H31.62C30.5699 54.4216 29.5421 54.9035 28.8744 55.7708C25.9474 54.7469 23.2688 53.0569 21.079 50.8567C20.7118 50.4879 20.1153 50.4866 19.7465 50.8537C19.3777 51.2208 19.3763 51.8172 19.7435 52.186C20.7573 53.2044 21.8675 54.1205 23.0513 54.9248C22.3108 55.4799 21.3518 56.3302 20.3986 57.5513C18.6378 59.8072 16.5388 63.8354 16.5388 70.2154C16.5388 70.7357 16.9606 71.1575 17.4809 71.1575H49.3514H49.3518C49.3553 71.1575 49.3587 71.1578 49.3622 71.1578C52.5338 71.1578 55.1141 68.5775 55.1141 65.4058V61.3535H57.8638V63.2188C57.8638 65.4183 59.6534 67.2079 61.8529 67.2079C64.0526 67.2079 65.842 65.4183 65.842 63.2188V61.3535H67.1046C69.0157 61.3535 70.5705 59.7987 70.5705 57.8876C70.5705 55.9765 69.0157 54.4217 67.1046 54.4217H65.842V52.5564C65.842 50.3569 64.0525 48.5673 61.8529 48.5673C59.6534 48.5673 57.8638 50.3569 57.8638 52.5564V54.4217H54.5936C54.0627 53.2624 53.1583 52.3092 52.0345 51.7169C53.7668 49.8765 55.1641 47.7783 56.1954 45.4606C56.5461 44.6725 56.8476 43.8695 57.1032 43.0545C57.1296 43.0548 57.1562 43.0559 57.1825 43.0559C60.8847 43.0559 63.8964 40.044 63.8964 36.3419C63.8964 34.8018 63.3739 33.382 62.4985 32.2481C62.1585 30.0117 61.5433 27.8289 60.6624 25.757C60.6624 25.7568 60.6623 25.7567 60.6623 25.7566C59.7027 23.4973 58.4384 21.3781 56.9031 19.4518C56.8638 17.3204 55.6353 14.996 52.8797 14.2108C51.8508 12.263 50.2116 10.6774 48.2231 9.71722C46.2355 8.75738 43.9756 8.45929 41.8111 8.8639C40.0372 7.55699 37.8713 6.8421 35.6629 6.8421C35.6624 6.8421 35.6617 6.8421 35.6611 6.8421C33.4576 6.84248 31.2966 7.5546 29.5223 8.85838C25.0652 7.95758 20.5084 10.1512 18.4389 14.2127C15.6887 14.9993 14.4612 17.3219 14.4213 19.4515C12.8901 21.3729 11.626 23.4922 10.6631 25.7567C10.6631 25.7567 10.6631 25.7568 10.6629 25.757C9.78299 27.8289 9.16822 30.0114 8.82843 32.2468C7.9525 33.381 7.42969 34.8011 7.42969 36.3418C7.42969 40.044 10.4415 43.0558 14.1437 43.0558ZM43.6321 56.306C43.588 56.8112 43.622 57.433 43.6103 59.4692H40.8607V56.306H43.6321ZM36.8716 65.3236C35.7111 65.3236 34.7668 64.3794 34.7668 63.2188C34.7668 62.124 34.7668 53.9912 34.7668 52.5564C34.7668 51.3939 35.7129 50.4516 36.8715 50.4516C38.0389 50.4516 38.9763 51.4055 38.9763 52.5564V63.2188C38.9765 64.3795 38.0319 65.3236 36.8716 65.3236ZM32.8824 56.306V59.4692H31.6198C30.7477 59.4692 30.0382 58.7598 30.0382 57.8876C30.0382 57.0092 30.7558 56.306 31.6198 56.306H32.8824ZM18.4399 69.2734C18.5906 65.0961 19.7502 61.4897 21.8163 58.7981C22.538 57.8581 23.2647 57.1673 23.8592 56.6851C23.8592 57.8365 23.8594 67.6764 23.8594 69.2734H18.4399ZM25.7436 56.4982C26.5334 56.8864 27.4009 57.2496 28.1729 57.5233C27.9565 59.564 29.5629 61.3535 31.6198 61.3535H32.8824V63.2188C32.8824 65.4183 34.6719 67.2079 36.8715 67.2079C39.0482 67.2079 40.8606 65.4392 40.8606 63.2188V61.3535H43.6102V65.406C43.6102 66.6077 43.9878 67.7397 44.6256 68.6643C44.773 68.8781 44.9338 69.0819 45.1081 69.2735H25.7437C25.7437 68.2294 25.7436 58.0973 25.7436 56.4982ZM67.1047 56.306C67.9767 56.306 68.6863 57.0155 68.6863 57.8876C68.6863 58.7598 67.9769 59.4692 67.1047 59.4692H65.8421V56.306H67.1047ZM59.7481 52.5564C59.7481 51.3959 60.6923 50.4516 61.8529 50.4516C63.0135 50.4516 63.9577 51.3959 63.9577 52.5564V63.2188C63.9577 64.3794 63.0135 65.3236 61.8529 65.3236C60.6923 65.3236 59.7481 64.3794 59.7481 63.2188C59.7481 62.124 59.7481 53.9912 59.7481 52.5564ZM55.0925 56.306H57.8638V59.4692H55.1142C55.1021 57.3389 55.1363 56.8091 55.0925 56.306ZM53.2297 56.803C53.2297 56.8047 53.2298 56.8063 53.2298 56.8081V65.406C53.2298 67.5387 51.4948 69.2738 49.3622 69.2738C49.3596 69.2738 49.3568 69.2736 49.3542 69.2736C49.3539 69.2736 49.3537 69.2736 49.3534 69.2736C47.2257 69.2689 45.4946 67.534 45.4946 65.4062C45.4946 63.4248 45.4946 58.6251 45.4946 56.8082C45.4946 54.5936 47.3547 52.8358 49.5572 52.9455C51.5901 53.0476 53.2268 54.7307 53.2297 56.803ZM11.1194 30.3466C11.3916 29.2302 11.74 28.1341 12.1619 27.0675H15.202C14.8757 27.7859 14.4979 28.7534 14.224 29.6284C13.1294 29.6203 12.0783 29.863 11.1194 30.3466ZM9.31394 36.3418C9.31394 33.8522 11.215 31.7581 13.7193 31.5323C13.0527 34.5862 13.0085 37.8972 13.7182 41.1529C11.2536 40.9368 9.31394 38.8616 9.31394 36.3418ZM60.2071 30.3469C59.2991 29.888 58.2108 29.6157 57.1021 29.6284C56.8496 28.8219 56.4888 27.8712 56.1242 27.0675H59.1638C59.5862 28.1341 59.9346 29.23 60.2071 30.3469ZM57.6083 41.1529C58.314 37.9215 58.2794 34.6125 57.6068 31.5325C60.1554 31.7615 62.0122 33.8992 62.0122 36.3419C62.0122 38.8614 60.0727 40.9366 57.6083 41.1529ZM15.8177 20.7218H42.6368C43.1571 20.7218 43.5789 20.2999 43.5789 19.7796C43.5789 19.2593 43.1571 18.8375 42.6368 18.8375H16.3646C16.5804 17.6093 17.3915 16.3904 19.1671 15.9694C19.2347 15.9533 19.2784 15.9439 19.3007 15.9388C19.8278 15.8207 19.9801 15.3339 20.0027 15.3028C21.6844 11.7291 25.6861 9.83053 29.5179 10.7885C29.8044 10.8601 30.1131 10.789 30.3429 10.6037C31.8442 9.3935 33.733 8.72673 35.6614 8.72635H35.6629C37.5908 8.72635 39.4793 9.39237 40.9877 10.6075C41.2136 10.7899 41.5109 10.8581 41.7937 10.792C43.6734 10.3536 45.6657 10.5744 47.4037 11.4137C49.1417 12.253 50.5536 13.676 51.3747 15.4119C51.5859 15.8726 52.0294 15.9364 52.042 15.9424C53.7472 16.3199 54.709 17.4056 54.9601 18.8374H46.4053C45.885 18.8374 45.4632 19.2592 45.4632 19.7795C45.4632 20.2998 45.885 20.7216 46.4053 20.7216H55.5066C56.6023 22.1101 57.5469 23.6048 58.3268 25.1832C55.726 25.1832 14.6295 25.1832 12.999 25.1832C13.7805 23.6018 14.7248 22.1071 15.8177 20.7218Z" fill="#36383F"/>
</g>
</svg>
