<svg width="78" height="78" viewBox="0 0 78 78" fill="none" xmlns="http://www.w3.org/2000/svg">
<g id="Swedish walls" clip-path="url(#clip0_2_1671)">
<path id="Vector" d="M41.4375 11.2448V6.36981H72.0586V11.2448H41.4375Z" fill="#DEDFE7"/>
<path id="Vector_2" d="M1.06641 1.06641H5.94141V76.9336H1.06641V1.06641Z" fill="#4788FF"/>
<path id="Vector_3" d="M36.5625 1.06641H41.4375V76.9336H36.5625V1.06641Z" fill="#F04716"/>
<g id="Group">
<path id="Vector_4" d="M5.94141 11.2448V6.36981H36.5625V11.2448H5.94141Z" fill="#DEDFE7"/>
<path id="Vector_5" d="M5.94141 26.3414V21.4664H36.5625V26.3414H5.94141Z" fill="#DEDFE7"/>
<path id="Vector_6" d="M5.94141 41.4375V36.5625H36.5625V41.4375H5.94141Z" fill="#DEDFE7"/>
<path id="Vector_7" d="M5.94141 56.5336V51.6586H36.5625V56.5336H5.94141Z" fill="#DEDFE7"/>
<path id="Vector_8" d="M5.94141 71.6302V66.7552H36.5625V71.6302H5.94141Z" fill="#DEDFE7"/>
</g>
<path id="Vector_9" d="M72.0586 1.06641H76.9336V76.9336H72.0586V1.06641Z" fill="#4788FF"/>
<path id="Vector_10" d="M56.748 21.5616C54.9991 21.5614 53.2894 22.08 51.8351 23.0516C50.3808 24.0232 49.2474 25.4042 48.578 27.02C47.9087 28.6358 47.7335 30.4138 48.0747 32.1292C48.4158 33.8445 49.258 35.4202 50.4947 36.6569C51.7314 37.8936 53.3071 38.7358 55.0225 39.077C56.7378 39.4181 58.5158 39.243 60.1316 38.5736C61.7475 37.9043 63.1285 36.7708 64.1001 35.3165C65.0717 33.8623 65.5902 32.1525 65.5901 30.4036C65.5901 29.2424 65.3614 28.0927 64.917 27.0199C64.4727 25.9471 63.8214 24.9724 63.0003 24.1513C62.1792 23.3303 61.2045 22.679 60.1317 22.2346C59.059 21.7903 57.9092 21.5616 56.748 21.5616ZM56.748 34.3712C55.9633 34.3712 55.1962 34.1385 54.5437 33.7025C53.8912 33.2665 53.3826 32.6468 53.0824 31.9218C52.7821 31.1968 52.7035 30.399 52.8567 29.6293C53.0098 28.8597 53.3878 28.1527 53.9427 27.5978C54.4977 27.043 55.2047 26.6651 55.9744 26.5121C56.7441 26.3591 57.5418 26.4377 58.2668 26.7381C58.9918 27.0385 59.6114 27.5472 60.0473 28.1997C60.4832 28.8523 60.7158 29.6194 60.7157 30.4042C60.7137 31.4556 60.295 32.4634 59.5513 33.2065C58.8075 33.9497 57.7995 34.3677 56.748 34.3688V34.3712Z" fill="#4788FF"/>
<path id="Vector_11" d="M54.3105 21.9094V27.2799C55.0055 26.7335 55.864 26.4364 56.748 26.4364C57.6321 26.4364 58.4905 26.7335 59.1855 27.2799V21.9094C57.5936 21.4456 55.9025 21.4456 54.3105 21.9094Z" fill="#4788FF"/>
<path id="Vector_12" d="M56.748 21.5615C57.5728 21.5632 58.3933 21.6804 59.1855 21.9095V6.37042H54.3105V21.9095C55.1028 21.6804 55.9233 21.5632 56.748 21.5615Z" fill="#A3A6B2"/>
<path id="Vector_13" d="M15.3867 27.4079H16.2246C16.5074 27.4079 16.7787 27.2955 16.9787 27.0955C17.1787 26.8955 17.291 26.6243 17.291 26.3415C17.291 26.0586 17.1787 25.7874 16.9787 25.5874C16.7787 25.3874 16.5074 25.2751 16.2246 25.2751H15.3867C15.1039 25.2751 14.8326 25.3874 14.6327 25.5874C14.4327 25.7874 14.3203 26.0586 14.3203 26.3415C14.3203 26.6243 14.4327 26.8955 14.6327 27.0955C14.8326 27.2955 15.1039 27.4079 15.3867 27.4079Z" fill="#36383F"/>
<path id="Vector_14" d="M76.9336 18.6901C77.0737 18.6902 77.2124 18.6627 77.3418 18.6091C77.4712 18.5556 77.5888 18.477 77.6878 18.378C77.7869 18.2789 77.8654 18.1613 77.919 18.0319C77.9725 17.9025 78.0001 17.7638 78 17.6237V1.06641C78.0001 0.926341 77.9725 0.787634 77.919 0.658216C77.8654 0.528797 77.7869 0.411206 77.6878 0.312165C77.5888 0.213124 77.4712 0.134576 77.3418 0.0810124C77.2124 0.0274488 77.0737 -7.99315e-05 76.9336 1.74322e-07H72.0586C71.9185 -7.99315e-05 71.7798 0.0274488 71.6504 0.0810124C71.521 0.134576 71.4034 0.213124 71.3044 0.312165C71.2053 0.411206 71.1268 0.528797 71.0732 0.658216C71.0196 0.787634 70.9921 0.926341 70.9922 1.06641V5.30156H42.5039V1.06641C42.504 0.926341 42.4765 0.787634 42.4229 0.658216C42.3693 0.528797 42.2908 0.411206 42.1917 0.312165C42.0927 0.213124 41.9751 0.134576 41.8457 0.0810124C41.7163 0.0274488 41.5776 -7.99315e-05 41.4375 1.74322e-07H36.5625C36.2797 1.74322e-07 36.0084 0.112353 35.8084 0.312343C35.6084 0.512333 35.4961 0.783578 35.4961 1.06641V5.30156H7.00781V1.06641C7.00781 0.783578 6.89546 0.512333 6.69547 0.312343C6.49548 0.112353 6.22423 1.74322e-07 5.94141 1.74322e-07H1.06641C0.783578 1.74322e-07 0.512333 0.112353 0.312343 0.312343C0.112353 0.512333 0 0.783578 0 1.06641L0 76.9336C0 77.2164 0.112353 77.4877 0.312343 77.6877C0.512333 77.8876 0.783578 78 1.06641 78H5.94141C6.22423 78 6.49548 77.8876 6.69547 77.6877C6.89546 77.4877 7.00781 77.2164 7.00781 76.9336V72.6984H35.4961V76.9354C35.4966 77.2179 35.6091 77.4887 35.8091 77.6883C36.009 77.8879 36.28 78 36.5625 78H41.4375C41.5776 78.0001 41.7163 77.9725 41.8457 77.919C41.9751 77.8654 42.0927 77.7869 42.1917 77.6878C42.2908 77.5888 42.3693 77.4712 42.4229 77.3418C42.4765 77.2124 42.504 77.0737 42.5039 76.9336V12.3094H53.2441V21.1453C51.0748 21.9654 49.2619 23.5203 48.121 25.5394C46.9801 27.5585 46.5835 29.9138 47.0004 32.1951C47.4172 34.4765 48.621 36.5394 50.4021 38.0246C52.1833 39.5098 54.4289 40.3232 56.748 40.3232C59.0672 40.3232 61.3128 39.5098 63.094 38.0246C64.8751 36.5394 66.0789 34.4765 66.4957 32.1951C66.9126 29.9138 66.516 27.5585 65.3751 25.5394C64.2342 23.5203 62.4212 21.9654 60.252 21.1453V12.3094H70.9922V76.9336C70.9921 77.0737 71.0196 77.2124 71.0732 77.3418C71.1268 77.4712 71.2053 77.5888 71.3044 77.6878C71.4034 77.7869 71.521 77.8654 71.6504 77.919C71.7798 77.9725 71.9185 78.0001 72.0586 78H76.9336C77.0737 78.0001 77.2124 77.9725 77.3418 77.919C77.4712 77.8654 77.5888 77.7869 77.6878 77.6878C77.7869 77.5888 77.8654 77.4712 77.919 77.3418C77.9725 77.2124 78.0001 77.0737 78 76.9336V25.0605C78 24.7777 77.8876 24.5065 77.6877 24.3065C77.4877 24.1065 77.2164 23.9941 76.9336 23.9941C76.6508 23.9941 76.3795 24.1065 76.1795 24.3065C75.9795 24.5065 75.8672 24.7777 75.8672 25.0605V75.8672H73.125V2.13281H75.8672V17.6237C75.8671 17.7638 75.8946 17.9025 75.9482 18.0319C76.0018 18.1613 76.0803 18.2789 76.1794 18.378C76.2784 18.477 76.396 18.5556 76.5254 18.6091C76.6548 18.6627 76.7935 18.6902 76.9336 18.6901ZM58.1191 7.43437V10.1766H55.377V7.43437H58.1191ZM35.4961 25.275H21.4049C21.1221 25.275 20.8508 25.3874 20.6508 25.5874C20.4509 25.7874 20.3385 26.0586 20.3385 26.3415C20.3385 26.6243 20.4509 26.8955 20.6508 27.0955C20.8508 27.2955 21.1221 27.4079 21.4049 27.4079H35.4961V35.4961H7.00781V27.4079H10.2064C10.4893 27.4079 10.7605 27.2955 10.9605 27.0955C11.1605 26.8955 11.2728 26.6243 11.2728 26.3415C11.2728 26.0586 11.1605 25.7874 10.9605 25.5874C10.7605 25.3874 10.4893 25.275 10.2064 25.275H7.00781V22.5329H35.4961V25.275ZM35.4961 40.3711H7.00781V37.6289H35.4961V40.3711ZM7.00781 42.5039H35.4961V50.5921H7.00781V42.5039ZM7.00781 52.725H35.4961V55.4671H7.00781V52.725ZM35.4961 20.4H7.00781V12.3094H35.4961V20.4ZM7.00781 57.6H35.4961V65.6906H7.00781V57.6ZM35.4961 7.43437V10.1766H7.00781V7.43437H35.4961ZM4.875 75.8672H2.13281V2.13281H4.875V75.8672ZM7.00781 70.5656V67.8234H35.4961V70.5656H7.00781ZM40.3711 75.8672H37.6289V2.13281H40.3711V75.8672ZM42.5039 10.1766V7.43437H53.2441V10.1766H42.5039ZM55.0266 28.0824C55.1117 28.0201 55.2002 27.9625 55.2916 27.91C55.3453 27.8783 55.3995 27.849 55.4556 27.821C55.5595 27.7684 55.6665 27.7222 55.7761 27.6827C55.8127 27.6699 55.8504 27.6595 55.8876 27.648C56.4489 27.4767 57.0484 27.4767 57.6097 27.648C57.6469 27.6595 57.6847 27.6699 57.7212 27.6827C57.8308 27.7222 57.9378 27.7684 58.0418 27.821C58.0978 27.849 58.152 27.8783 58.2063 27.91C58.2976 27.9625 58.3859 28.02 58.4708 28.0824C58.9624 28.4451 59.327 28.9536 59.5127 29.5356C59.6983 30.1176 59.6955 30.7434 59.5047 31.3237C59.3138 31.904 58.9446 32.4093 58.4497 32.7675C57.9549 33.1257 57.3596 33.3185 56.7487 33.3185C56.1378 33.3185 55.5424 33.1257 55.0476 32.7675C54.5527 32.4093 54.1835 31.904 53.9927 31.3237C53.8018 30.7434 53.799 30.1176 53.9846 29.5356C54.1703 28.9536 54.5349 28.4451 55.0266 28.0824ZM58.0168 25.5383C57.8644 25.4981 57.709 25.4658 57.5518 25.4402C57.4909 25.4304 57.4299 25.4201 57.3727 25.4128C56.9586 25.3559 56.5387 25.3559 56.1247 25.4128C56.0637 25.4201 56.0028 25.4304 55.9455 25.4402C55.7883 25.4658 55.6329 25.5011 55.4805 25.5383C55.4464 25.5468 55.4111 25.5505 55.3776 25.5596V22.7565L55.4775 22.7388C55.5049 22.734 55.5323 22.7303 55.5598 22.726C55.6737 22.7077 55.7883 22.6919 55.9022 22.6791C55.968 22.6718 56.0332 22.6639 56.0985 22.6584C56.2746 22.6438 56.4519 22.634 56.6304 22.6316H56.8669C57.0454 22.6316 57.2228 22.6438 57.3989 22.6584C57.4641 22.6639 57.5293 22.6718 57.5951 22.6791C57.709 22.6919 57.8236 22.7077 57.9375 22.726C57.965 22.7303 57.9924 22.734 58.0198 22.7388L58.1198 22.7565V25.5596C58.0856 25.5505 58.0503 25.5468 58.0162 25.5383H58.0168ZM64.5249 30.4042C64.5265 31.788 64.1587 33.1473 63.4596 34.3416C62.7605 35.5359 61.7553 36.522 60.5478 37.1981C59.3403 37.8742 57.9743 38.2158 56.5907 38.1877C55.2071 38.1596 53.8561 37.7628 52.6771 37.0382C51.498 36.3136 50.5337 35.2875 49.8837 34.0657C49.2337 32.844 48.9214 31.471 48.9792 30.0883C49.037 28.7056 49.4627 27.3634 50.2125 26.2002C50.9622 25.037 52.0088 24.095 53.2441 23.4713V26.7973C52.5245 27.4949 52.0295 28.3915 51.8225 29.3722C51.6155 30.3529 51.706 31.373 52.0824 32.302C52.4587 33.2309 53.1038 34.0264 53.9351 34.5865C54.7663 35.1466 55.7457 35.4458 56.748 35.4458C57.7503 35.4458 58.7298 35.1466 59.561 34.5865C60.3923 34.0264 61.0374 33.2309 61.4137 32.302C61.7901 31.373 61.8806 30.3529 61.6736 29.3722C61.4666 28.3915 60.9716 27.4949 60.252 26.7973V23.4713C61.5351 24.1193 62.6136 25.1102 63.3678 26.334C64.1219 27.5578 64.5222 28.9667 64.5243 30.4042H64.5249ZM58.1198 20.5932C58.0588 20.5847 58.0021 20.5816 57.943 20.5743C57.8333 20.5609 57.7237 20.5481 57.6128 20.539C57.3245 20.5128 57.0363 20.4951 56.7487 20.4951C56.461 20.4951 56.1728 20.5128 55.8846 20.539C55.7737 20.5481 55.664 20.5609 55.5543 20.5743C55.4933 20.5816 55.4367 20.5847 55.3776 20.5932V12.3094H58.1198V20.5932ZM60.2526 10.1784V7.43437H70.9922V10.1766L60.2526 10.1784Z" fill="#36383F"/>
</g>
<defs>
<clipPath id="clip0_2_1671">
<rect width="78" height="78" fill="white"/>
</clipPath>
</defs>
</svg>
