<svg width="78" height="78" viewBox="0 0 78 78" fill="none" xmlns="http://www.w3.org/2000/svg">
<g id="Weightlifting" clip-path="url(#clip0_2_1692)">
<g id="Group 103">
<path id="Subtract" d="M54.7369 51.3158C58.5157 51.3158 61.579 48.2525 61.579 44.4737C61.579 40.6949 58.5157 37.6316 54.7369 37.6316C50.9581 37.6316 47.8948 40.6949 47.8948 44.4737C47.8948 44.7537 47.9116 45.0298 47.9443 45.301C50.0263 45.8636 51.6407 48.0257 51.9474 50.7232C52.7993 51.104 53.7434 51.3158 54.7369 51.3158Z" fill="#4788FF"/>
<path id="Vector 16" d="M11.6316 41.7369C7.5263 48.8527 10.1491 55.4211 11.9737 57.8158L7.52629 56.7895L5.13155 54.3948L3.76313 50.9737L2.73682 45.5L3.76313 40.7105L7.18418 34.5527L11.9737 30.7895L16.7631 30.1053L23.2631 32.8421C21.0965 32.8421 15.7368 34.6211 11.6316 41.7369Z" fill="#F04716"/>
<path id="Vector 14" d="M45.8421 30.4474L42.0789 33.5263L37.9736 26.6842L36.6052 21.5527L37.9736 17.1053L39.6842 13.3421L43.1052 11.2895L46.8684 10.2632H62.2631L67.0526 11.2895L70.8158 13.6842L72.8684 19.1579L73.2105 23.6053L70.4736 29.4211L67.7368 34.2106L63.6315 30.7895L66.7105 24.9737L67.7368 22.2369V20.1842L67.0526 18.1316L65.3421 16.079L62.2631 15.0527H47.5526L43.4473 16.4211L42.0789 19.5V22.2369L45.8421 30.4474Z" fill="#4788FF"/>
<path id="Vector 15" d="M30.7896 63.2895L32.158 68.7632L35.9211 71.8421L41.3948 71.1579L45.158 69.1053L48.9211 65.3421L50.9738 61.5789L51.658 54.3947L50.9738 49.2632L48.9211 46.5263L45.5001 45.1579L41.7369 45.8421L37.2896 48.2368L34.5527 50.9737L31.8159 57.1316L30.7896 63.2895Z" fill="#F04716"/>
<path id="Vector 11" d="M47.4881 45.8421C50.0484 47.0589 51.9999 49.9221 51.9999 54.7368C51.9999 63.2895 45.842 71.8421 38.6578 71.8421C37.7297 71.8421 36.4731 71.6193 35.2367 71.0161M47.4881 45.8421C45.5004 44.8974 43.1458 44.945 41.0525 45.8421C36.2631 47.8947 30.7894 54.0527 30.7894 62.9474C30.7894 67.5451 32.9793 69.9148 35.2367 71.0161M47.4881 45.8421L38.6578 42.0789C35.242 41.5097 31.1158 43.5456 28.0525 47.7926M35.2367 71.0161L28.0525 67.7368C23.7817 64.9913 23.3192 58.4376 25.4522 52.6842M25.4522 52.6842C25.7112 51.9854 26.0086 51.2985 26.342 50.6316C26.8591 49.5973 27.4342 48.6499 28.0525 47.7926M25.4522 52.6842L19.1578 49.2631C18.7016 48.921 17.5905 47.5526 18.8157 45.5C20.0409 43.4473 22.1227 44.1316 22.5788 44.4737L28.0525 47.7926M30.4473 40.7105C30.4473 37.9475 28.6621 34.7383 25.4522 33.6058M9.92095 46.5263C11.9736 38.3158 18.1315 33.1842 22.921 33.1842C23.8423 33.1842 24.6876 33.3361 25.4522 33.6058M20.8683 59.1842C19.4477 59.8945 17.3782 60.3099 15.3946 59.8178M9.57884 50.6316C9.97893 56.6329 12.6015 59.125 15.3946 59.8178M25.4522 33.6058L18.4736 30.7894C13.342 28.7368 7.18411 32.5 4.10516 40.7105C1.02621 48.921 4.78937 55.0789 7.86832 56.7895L15.3946 59.8178" stroke="#36383F" stroke-width="3" stroke-linecap="round" stroke-linejoin="round"/>
<path id="Ellipse 15" d="M39.9666 37.2895C42.6315 31.8208 48.2441 28.0527 54.7368 28.0527C63.8059 28.0527 71.1579 35.4046 71.1579 44.4737C71.1579 50.9664 67.3897 56.5791 61.921 59.244H55.421" stroke="#36383F" stroke-width="3" stroke-linecap="round" stroke-linejoin="round"/>
<path id="Ellipse 16" d="M55.7631 51.2393C59.055 50.7442 61.5789 47.9037 61.5789 44.4737C61.5789 40.6949 58.5155 37.6316 54.7368 37.6316C52.0285 37.6316 49.6878 39.2051 48.5789 41.4877" stroke="#36383F" stroke-width="3" stroke-linecap="round" stroke-linejoin="round"/>
<path id="Vector 12" d="M63.9736 30.7074L65.2982 27.9523C68.1708 21.9774 63.8165 15.0527 57.1869 15.0527H52.7876C46.037 15.0527 41.6894 22.2089 44.8001 28.2L45.9671 30.4474" stroke="#36383F" stroke-width="3" stroke-linecap="round" stroke-linejoin="round"/>
<path id="Vector 13" d="M68.0789 34.2345L69.0511 32.1702C73.8497 21.9812 66.4159 10.2632 55.1535 10.2632V10.2632C43.6875 10.2632 36.2629 22.3695 41.4611 32.5894L42.0789 33.804" stroke="#36383F" stroke-width="3" stroke-linecap="round" stroke-linejoin="round"/>
</g>
</g>
<defs>
<clipPath id="clip0_2_1692">
<rect width="78" height="78" fill="white"/>
</clipPath>
</defs>
</svg>
