<svg width="78" height="78" viewBox="0 0 78 78" fill="none" xmlns="http://www.w3.org/2000/svg">
<g id="Horizontal bars" clip-path="url(#clip0_2_1662)">
<rect id="Rectangle 38" x="41.0527" y="19.8421" width="30.7895" height="4.10526" fill="#A3A6B2"/>
<rect id="Rectangle 35" x="0.684326" y="0.684235" width="4.78947" height="75.9474" fill="#4788FF"/>
<rect id="Rectangle 36" x="36.2632" y="0.684235" width="4.78947" height="75.9474" fill="#4788FF"/>
<path id="Rectangle 37" d="M71.842 14.3684H76.9736V76.6316H71.842V14.3684Z" fill="#F04716"/>
<path id="Vector 10" d="M72.1843 20.1842V14.7105H76.9737V54.3947M72.1843 20.1842H41.3948M72.1843 20.1842V24.9737M41.3948 20.1842V1.02631H36.6053V6.49999M41.3948 20.1842V24.9737M41.3948 24.9737V76.9737H36.6053V11.2895M41.3948 24.9737H72.1843M72.1843 24.9737V76.9737H76.9737V65.3421M36.6053 11.2895V6.49999M36.6053 11.2895H31.6448M5.81584 11.2895V76.9737H1.02637V1.02631H5.81584V6.49999M5.81584 11.2895V6.49999M5.81584 11.2895H25.3158M5.81584 6.49999H36.6053M76.9737 60.0395V58.5855" stroke="#36383F" stroke-width="3" stroke-linecap="round" stroke-linejoin="round"/>
</g>
<defs>
<clipPath id="clip0_2_1662">
<rect width="78" height="78" fill="white"/>
</clipPath>
</defs>
</svg>
