<svg width="114" height="114" viewBox="0 0 114 114" fill="none" xmlns="http://www.w3.org/2000/svg">
<g id="Swedish walls" clip-path="url(#clip0_3202_35)">
<path id="Vector" d="M60.5625 16.4347V9.30974H105.316V16.4347H60.5625Z" fill="#DEDFE7"/>
<path id="Vector_2" d="M1.55859 1.55859H8.68359V112.441H1.55859V1.55859Z" fill="#4788FF"/>
<path id="Vector_3" d="M53.4375 1.55859H60.5625V112.441H53.4375V1.55859Z" fill="#F04716"/>
<g id="Group">
<path id="Vector_4" d="M8.68359 16.4348V9.30975H53.4375V16.4348H8.68359Z" fill="#DEDFE7"/>
<path id="Vector_5" d="M8.68359 38.4991V31.374H53.4375V38.4991H8.68359Z" fill="#DEDFE7"/>
<path id="Vector_6" d="M8.68359 60.5625V53.4375H53.4375V60.5625H8.68359Z" fill="#DEDFE7"/>
<path id="Vector_7" d="M8.68356 82.626V75.501H53.4375V82.626H8.68356Z" fill="#DEDFE7"/>
<path id="Vector_8" d="M8.68356 104.69V97.5653H53.4375V104.69H8.68356Z" fill="#DEDFE7"/>
</g>
<path id="Vector_9" d="M105.316 1.55859H112.441V112.441H105.316V1.55859Z" fill="#4788FF"/>
<path id="Vector_10" d="M82.9393 31.513C80.3831 31.5129 77.8843 32.2707 75.7588 33.6907C73.6334 35.1107 71.9768 37.1292 70.9985 39.4907C70.0202 41.8523 69.7642 44.4509 70.2628 46.958C70.7615 49.4651 71.9924 51.768 73.7998 53.5754C75.6073 55.3829 77.9102 56.6138 80.4173 57.1125C82.9244 57.6111 85.523 57.3551 87.8846 56.3768C90.2461 55.3985 92.2645 53.7419 93.6846 51.6165C95.1046 49.491 95.8624 46.9922 95.8623 44.436C95.8623 42.7389 95.528 41.0585 94.8786 39.4906C94.2291 37.9227 93.2772 36.4981 92.0772 35.2981C90.8772 34.0981 89.4526 33.1462 87.8847 32.4967C86.3168 31.8473 84.6364 31.513 82.9393 31.513ZM82.9393 50.2349C81.7923 50.2349 80.6712 49.8947 79.7175 49.2575C78.7639 48.6203 78.0206 47.7146 77.5818 46.6549C77.1429 45.5953 77.0281 44.4293 77.2519 43.3044C77.4757 42.1795 78.0281 41.1462 78.8392 40.3353C79.6503 39.5243 80.6836 38.9721 81.8085 38.7485C82.9335 38.5248 84.0994 38.6398 85.159 39.0788C86.2186 39.5178 87.1242 40.2612 87.7613 41.215C88.3984 42.1687 88.7383 43.29 88.7381 44.4369C88.7353 45.9736 88.1233 47.4464 87.0363 48.5326C85.9493 49.6188 84.476 50.2297 82.9393 50.2313V50.2349Z" fill="#4788FF"/>
<path id="Vector_11" d="M79.377 32.0215V39.8706C80.3927 39.072 81.6474 38.6379 82.9395 38.6379C84.2316 38.6379 85.4862 39.072 86.502 39.8706V32.0215C84.1753 31.3436 81.7036 31.3436 79.377 32.0215Z" fill="#4788FF"/>
<path id="Vector_12" d="M82.9395 31.513C84.1449 31.5155 85.344 31.6867 86.502 32.0216V9.31064H79.377V32.0216C80.5349 31.6867 81.734 31.5155 82.9395 31.513Z" fill="#A3A6B2"/>
<path id="Vector_13" d="M22.4883 40.0576H23.7129C24.1263 40.0576 24.5227 39.8934 24.815 39.6011C25.1073 39.3089 25.2715 38.9124 25.2715 38.4991C25.2715 38.0857 25.1073 37.6893 24.815 37.397C24.5227 37.1047 24.1263 36.9405 23.7129 36.9405H22.4883C22.0749 36.9405 21.6785 37.1047 21.3862 37.397C21.0939 37.6893 20.9297 38.0857 20.9297 38.4991C20.9297 38.9124 21.0939 39.3089 21.3862 39.6011C21.6785 39.8934 22.0749 40.0576 22.4883 40.0576Z" fill="#36383F"/>
<path id="Vector_14" d="M112.441 27.3164C112.646 27.3165 112.849 27.2762 113.038 27.198C113.227 27.1197 113.399 27.0049 113.544 26.8601C113.689 26.7154 113.803 26.5435 113.882 26.3544C113.96 26.1652 114 25.9625 114 25.7578V1.55859C114 1.35388 113.96 1.15116 113.882 0.962007C113.803 0.772857 113.689 0.600993 113.544 0.456241C113.399 0.311489 113.227 0.196688 113.038 0.118403C112.849 0.0401175 112.646 -0.000116823 112.441 2.54779e-07H105.316C105.112 -0.000116823 104.909 0.0401175 104.72 0.118403C104.531 0.196688 104.359 0.311489 104.214 0.456241C104.069 0.600993 103.954 0.772857 103.876 0.962007C103.798 1.15116 103.758 1.35388 103.758 1.55859V7.74844H62.1211V1.55859C62.1212 1.35388 62.081 1.15116 62.0027 0.962007C61.9244 0.772857 61.8096 0.600993 61.6649 0.456241C61.5201 0.311489 61.3482 0.196688 61.1591 0.118403C60.9699 0.0401175 60.7672 -0.000116823 60.5625 2.54779e-07H53.4375C53.0241 2.54779e-07 52.6277 0.164209 52.3354 0.456502C52.0431 0.748795 51.8789 1.14523 51.8789 1.55859V7.74844H10.2422V1.55859C10.2422 1.14523 10.078 0.748795 9.78569 0.456502C9.49339 0.164209 9.09696 2.54779e-07 8.68359 2.54779e-07H1.55859C1.14523 2.54779e-07 0.748795 0.164209 0.456502 0.456502C0.164209 0.748795 0 1.14523 0 1.55859L0 112.441C0 112.855 0.164209 113.251 0.456502 113.543C0.748795 113.836 1.14523 114 1.55859 114H8.68359C9.09696 114 9.49339 113.836 9.78569 113.543C10.078 113.251 10.2422 112.855 10.2422 112.441V106.252H51.8789V112.444C51.8796 112.857 52.0441 113.253 52.3363 113.544C52.6286 113.836 53.0246 114 53.4375 114H60.5625C60.7672 114 60.9699 113.96 61.1591 113.882C61.3482 113.803 61.5201 113.689 61.6649 113.544C61.8096 113.399 61.9244 113.227 62.0027 113.038C62.081 112.849 62.1212 112.646 62.1211 112.441V17.9906H77.8184V30.9047C74.6479 32.1032 71.9982 34.3759 70.3307 37.3268C68.6632 40.2778 68.0836 43.7201 68.6928 47.0544C69.302 50.3887 71.0614 53.4037 73.6646 55.5744C76.2678 57.7451 79.55 58.9339 82.9395 58.9339C86.3289 58.9339 89.6111 57.7451 92.2143 55.5744C94.8175 53.4037 96.5769 50.3887 97.1861 47.0544C97.7953 43.7201 97.2157 40.2778 95.5482 37.3268C93.8807 34.3759 91.2311 32.1032 88.0605 30.9047V17.9906H103.758V112.441C103.758 112.646 103.798 112.849 103.876 113.038C103.954 113.227 104.069 113.399 104.214 113.544C104.359 113.689 104.531 113.803 104.72 113.882C104.909 113.96 105.112 114 105.316 114H112.441C112.646 114 112.849 113.96 113.038 113.882C113.227 113.803 113.399 113.689 113.544 113.544C113.689 113.399 113.803 113.227 113.882 113.038C113.96 112.849 114 112.646 114 112.441V36.627C114 36.2136 113.836 35.8172 113.543 35.5249C113.251 35.2326 112.855 35.0684 112.441 35.0684C112.028 35.0684 111.632 35.2326 111.339 35.5249C111.047 35.8172 110.883 36.2136 110.883 36.627V110.883H106.875V3.11719H110.883V25.7578C110.883 25.9625 110.923 26.1652 111.001 26.3544C111.079 26.5435 111.194 26.7154 111.339 26.8601C111.484 27.0049 111.656 27.1197 111.845 27.198C112.034 27.2762 112.237 27.3165 112.441 27.3164ZM84.9434 10.8656V14.8734H80.9355V10.8656H84.9434ZM51.8789 36.9405H31.2841C30.8707 36.9405 30.4743 37.1047 30.182 37.397C29.8897 37.6892 29.7255 38.0857 29.7255 38.499C29.7255 38.9124 29.8897 39.3088 30.182 39.6011C30.4743 39.8934 30.8707 40.0576 31.2841 40.0576H51.8789V51.8789H10.2422V40.0576H14.9171C15.3304 40.0576 15.7269 39.8934 16.0192 39.6011C16.3115 39.3088 16.4757 38.9124 16.4757 38.499C16.4757 38.0857 16.3115 37.6892 16.0192 37.397C15.7269 37.1047 15.3304 36.9405 14.9171 36.9405H10.2422V32.9326H51.8789V36.9405ZM51.8789 59.0039H10.2422V54.9961H51.8789V59.0039ZM10.2422 62.1211H51.8789V73.9424H10.2422V62.1211ZM10.2422 77.0595H51.8789V81.0674H10.2422V77.0595ZM51.8789 29.8155H10.2422V17.9906H51.8789V29.8155ZM10.2422 84.1845H51.8789V96.0094H10.2422V84.1845ZM51.8789 10.8656V14.8734H10.2422V10.8656H51.8789ZM7.125 110.883H3.11719V3.11719H7.125V110.883ZM10.2422 103.134V99.1266H51.8789V103.134H10.2422ZM59.0039 110.883H54.9961V3.11719H59.0039V110.883ZM62.1211 14.8734V10.8656H77.8184V14.8734H62.1211ZM80.4234 41.0436C80.5478 40.9525 80.6772 40.8683 80.8109 40.7915C80.8892 40.7452 80.9685 40.7025 81.0504 40.6615C81.2023 40.5846 81.3588 40.5171 81.5189 40.4593C81.5723 40.4406 81.6276 40.4255 81.6819 40.4085C82.5022 40.1583 83.3785 40.1583 84.1988 40.4085C84.2531 40.4255 84.3083 40.4406 84.3618 40.4593C84.5219 40.5171 84.6784 40.5846 84.8303 40.6615C84.9122 40.7025 84.9914 40.7452 85.0707 40.7915C85.2042 40.8682 85.3332 40.9524 85.4573 41.0436C86.1758 41.5735 86.7087 42.3168 86.9801 43.1674C87.2514 44.0181 87.2473 44.9327 86.9684 45.7808C86.6894 46.629 86.1498 47.3674 85.4266 47.891C84.7033 48.4145 83.8332 48.6963 82.9403 48.6963C82.0475 48.6963 81.1774 48.4145 80.4541 47.891C79.7309 47.3674 79.1913 46.629 78.9123 45.7808C78.6334 44.9327 78.6293 44.0181 78.9006 43.1674C79.172 42.3168 79.7049 41.5735 80.4234 41.0436ZM84.7937 37.3252C84.5711 37.2664 84.344 37.2192 84.1142 37.1818C84.0251 37.1676 83.9361 37.1524 83.8523 37.1417C83.2472 37.0586 82.6335 37.0586 82.0283 37.1417C81.9393 37.1524 81.8502 37.1676 81.7665 37.1818C81.5367 37.2192 81.3096 37.2709 81.087 37.3252C81.0371 37.3377 80.9854 37.343 80.9364 37.3564V33.2595L81.0825 33.2337C81.1226 33.2265 81.1627 33.2212 81.2027 33.215C81.3693 33.1882 81.5367 33.1651 81.7033 33.1464C81.7995 33.1357 81.8947 33.1241 81.99 33.1161C82.2474 33.0947 82.5066 33.0805 82.7676 33.0769H83.1131C83.3741 33.0769 83.6332 33.0947 83.8906 33.1161C83.9859 33.1241 84.0812 33.1357 84.1774 33.1464C84.344 33.1651 84.5114 33.1882 84.678 33.215C84.718 33.2212 84.7581 33.2265 84.7982 33.2337L84.9443 33.2595V37.3564C84.8944 37.343 84.8427 37.3377 84.7928 37.3252H84.7937ZM94.3056 44.4368C94.3079 46.4594 93.7704 48.446 92.7486 50.1915C91.7268 51.937 90.2577 53.3783 88.493 54.3664C86.7282 55.3546 84.7317 55.8539 82.7095 55.8128C80.6873 55.7717 78.7127 55.1917 76.9895 54.1327C75.2663 53.0737 73.857 51.574 72.9069 49.7884C71.9569 48.0028 71.5005 45.9961 71.585 43.9752C71.6695 41.9544 72.2917 39.9927 73.3875 38.2926C74.4832 36.5926 76.0128 35.2157 77.8184 34.3042V39.1652C76.7666 40.1849 76.0431 41.4953 75.7406 42.9286C75.4381 44.3619 75.5703 45.8529 76.1204 47.2106C76.6705 48.5683 77.6133 49.7309 78.8282 50.5495C80.043 51.3681 81.4746 51.8053 82.9395 51.8053C84.4044 51.8053 85.8359 51.3681 87.0508 50.5495C88.2656 49.7309 89.2084 48.5683 89.7585 47.2106C90.3086 45.8529 90.4408 44.3619 90.1383 42.9286C89.8358 41.4953 89.1123 40.1849 88.0605 39.1652V34.3042C89.9359 35.2513 91.5122 36.6996 92.6144 38.4882C93.7166 40.2768 94.3017 42.3359 94.3047 44.4368H94.3056ZM84.9443 30.0978C84.8552 30.0853 84.7724 30.0809 84.686 30.0702C84.5257 30.0506 84.3653 30.0319 84.2032 30.0185C83.782 29.9802 83.3607 29.9544 82.9403 29.9544C82.52 29.9544 82.0987 29.9802 81.6774 30.0185C81.5153 30.0319 81.355 30.0506 81.1947 30.0702C81.1057 30.0809 81.0228 30.0853 80.9364 30.0978V17.9906H84.9443V30.0978ZM88.0614 14.8761V10.8656H103.758V14.8734L88.0614 14.8761Z" fill="#36383F"/>
</g>
<defs>
<clipPath id="clip0_3202_35">
<rect width="114" height="114" fill="white"/>
</clipPath>
</defs>
</svg>
