<svg width="78" height="78" viewBox="0 0 78 78" fill="none" xmlns="http://www.w3.org/2000/svg">
<g id="Martial arts">
<path id="Vector 19" d="M38.6578 30.4474L22.5789 24.6316L25.6578 17.1053L41.3946 22.579L38.6578 30.4474Z" fill="#F04716"/>
<path id="Vector 18" d="M40.0264 39L42.7632 35.5789L45.8422 36.2631H57.1316L60.2106 35.5789L63.2895 37.4605L66.0264 43.1052V50.2894L64.658 53.0263V59.1842L63.2895 63.6315L58.8422 66.7105H46.1843L40.7106 63.9737L38.658 59.8684V43.1052L40.0264 39Z" fill="#4788FF"/>
<g id="Group 102">
<path id="Vector 17" d="M60.5526 46.5263H57.4736C55.7631 46.5263 54.0526 48.2369 54.0526 50.2895C54.0526 52.3421 55.7631 54.0527 57.8157 54.0527C59.4578 54.0527 60.7806 54.0527 61.2368 54.0527C62.4381 54.0527 63.6394 53.7402 64.6578 53.0746M64.6578 53.0746C66.2496 52.0343 66.7105 50.1313 66.7105 47.2106V45.1579C66.7105 39.6842 59.8683 34.8948 59.8683 34.8948M64.6578 53.0746V55.3685C64.6578 61.4436 59.733 66.3685 53.6578 66.3685H49.6578C43.5827 66.3685 38.6578 61.4436 38.6578 55.3685V47.5527M42.7631 35.2369V27.3685H51.6578M42.7631 35.2369V35.2369C42.7631 35.8037 43.2226 36.2632 43.7894 36.2632H58.4999C59.2557 36.2632 59.8683 35.6505 59.8683 34.8948V34.8948M42.7631 35.2369C42.7631 35.2369 42.3171 35.7572 41.7191 36.6053M59.8683 34.8948V31.4737M59.8683 31.4737V27.3685H51.6578M59.8683 31.4737H52.342M48.2368 31.4737H46.8683M22.5789 24.9737L38.6578 30.4474M22.5789 24.9737C20.9824 25.2018 17.3104 26.9579 15.3947 32.1579L11.91 41.6163C9.85053 47.2063 12.6153 53.4199 18.1465 55.6323L24.3116 58.0984C28.7226 59.8628 33.7453 57.8949 35.7836 53.6036L38.6578 47.5527M22.5789 24.9737L24.3749 20.1842M38.6578 30.4474L41.3947 22.579L33.5262 19.6711M38.6578 30.4474L41.7191 36.6053M41.7191 36.6053C40.5028 38.3302 38.6578 41.4111 38.6578 44.2276V47.5527M24.3749 20.1842L25.6578 16.7632L33.5262 19.6711M24.3749 20.1842L32.4999 23.2632M33.5262 19.6711L42.7631 9.57898L51.6578 27.3685M16.0789 43.7895V43.7895C15.1256 46.268 16.3126 49.0555 18.7599 50.086L20.8683 50.9737" stroke="#36383F" stroke-width="3" stroke-linecap="round" stroke-linejoin="round"/>
</g>
</g>
</svg>
