<svg width="78" height="78" viewBox="0 0 78 78" fill="none" xmlns="http://www.w3.org/2000/svg">
<g id="Weightlifting">
<path id="Subtract" fill-rule="evenodd" clip-rule="evenodd" d="M60.8947 35.579H39V54.0527H60.8947V35.579ZM55.4211 40.3685H45.1579V45.8421H55.4211V40.3685Z" fill="#4788FF"/>
<rect id="Rectangle 76" x="13" y="54.0526" width="52.6842" height="6.15789" fill="#DEDFE7"/>
<rect id="Rectangle 77" x="23.2632" y="39.6842" width="10.2632" height="6.84211" fill="#F04716"/>
<path id="Rectangle 79" d="M35.5789 17.7894H43.1052V26L39.342 23.9473L35.5789 26V17.7894Z" fill="#F04716"/>
<rect id="Rectangle 69" x="13" y="54.0526" width="52.6842" height="6.15789" rx="2" stroke="#36383F" stroke-width="3" stroke-linejoin="round"/>
<rect id="Rectangle 70" x="17.1052" y="35.579" width="21.8947" height="18.4737" rx="2" stroke="#36383F" stroke-width="3" stroke-linejoin="round"/>
<rect id="Rectangle 71" x="39" y="35.579" width="21.8947" height="18.4737" rx="2" stroke="#36383F" stroke-width="3" stroke-linejoin="round"/>
<rect id="Rectangle 72" x="28.0527" y="17.7894" width="21.8947" height="17.7895" rx="2" stroke="#36383F" stroke-width="3" stroke-linejoin="round"/>
<rect id="Rectangle 73" x="23.2632" y="40.3684" width="10.2632" height="5.47368" rx="2" stroke="#36383F" stroke-width="3" stroke-linejoin="round"/>
<rect id="Rectangle 74" x="45.158" y="40.3684" width="10.2631" height="5.47368" rx="2" stroke="#36383F" stroke-width="3" stroke-linejoin="round"/>
<path id="Rectangle 75" d="M35.5789 21.2106V26L39.342 23.9474L43.1052 26V21.2106" stroke="#36383F" stroke-width="3" stroke-linecap="round" stroke-linejoin="round"/>
</g>
</svg>
