<svg width="114" height="114" viewBox="0 0 114 114" fill="none" xmlns="http://www.w3.org/2000/svg">
<g id="Weightlifting">
<path id="Subtract" fill-rule="evenodd" clip-rule="evenodd" d="M89 52H57V79H89V52ZM81 59H66V67H81V59Z" fill="#4788FF"/>
<rect id="Rectangle 76" x="19" y="79" width="77" height="9" fill="#DEDFE7"/>
<rect id="Rectangle 77" x="34" y="58" width="15" height="10" fill="#F04716"/>
<path id="Rectangle 79" d="M52 26H63V38L57.5 35L52 38V26Z" fill="#F04716"/>
<rect id="Rectangle 69" x="19" y="79" width="77" height="9" rx="2" stroke="#36383F" stroke-width="3" stroke-linejoin="round"/>
<rect id="Rectangle 70" x="25" y="52" width="32" height="27" rx="2" stroke="#36383F" stroke-width="3" stroke-linejoin="round"/>
<rect id="Rectangle 71" x="57" y="52" width="32" height="27" rx="2" stroke="#36383F" stroke-width="3" stroke-linejoin="round"/>
<rect id="Rectangle 72" x="41" y="26" width="32" height="26" rx="2" stroke="#36383F" stroke-width="3" stroke-linejoin="round"/>
<rect id="Rectangle 73" x="34" y="59" width="15" height="8" rx="2" stroke="#36383F" stroke-width="3" stroke-linejoin="round"/>
<rect id="Rectangle 74" x="66" y="59" width="15" height="8" rx="2" stroke="#36383F" stroke-width="3" stroke-linejoin="round"/>
<path id="Rectangle 75" d="M52 31V38L57.5 35L63 38V31" stroke="#36383F" stroke-width="3" stroke-linecap="round" stroke-linejoin="round"/>
</g>
</svg>
