<svg width="78" height="78" viewBox="0 0 78 78" fill="none" xmlns="http://www.w3.org/2000/svg">
<g id="Street complexes" clip-path="url(#clip0_2_1650)">
<rect id="Rectangle 39" x="24.6316" y="4.10529" width="47.8948" height="5.47369" fill="#DEDFE7"/>
<path id="Rectangle 36" d="M19.842 0.684204H25.3157V77.3158H19.842V0.684204Z" fill="#4788FF"/>
<path id="Rectangle 38" d="M0.684326 0.684204H6.15801V77.3158H0.684326V0.684204Z" fill="#4788FF"/>
<path id="Rectangle 37" d="M71.842 0.684204H76.9736V76.6316H71.842V0.684204Z" fill="#F04716"/>
<path id="Vector 10" d="M72.1843 4.44736V1.02631H76.9737V13.3421M72.1843 4.44736H24.9737M72.1843 4.44736V9.23683M24.9737 4.44736V1.02631H20.1843V4.44736M24.9737 4.44736V9.23683M24.9737 9.23683V76.9737H20.1843V66.7105M24.9737 9.23683H32.5M72.1843 9.23683V76.9737H76.9737V24.2895M72.1843 9.23683H64.6579M20.1843 9.23683V4.44736M20.1843 9.23683H17.9606M20.1843 9.23683V18.8158M5.81584 9.23683V4.44736M5.81584 9.23683H12.3158M5.81584 9.23683V18.8158M5.81584 4.44736V1.02631H1.02637V76.9737H5.81584V66.7105M5.81584 4.44736H20.1843M76.9737 18.9868V17.5329M20.1843 18.8158H5.81584M20.1843 18.8158V23.6053M5.81584 18.8158V23.6053M5.81584 23.6053H20.1843M5.81584 23.6053V33.1842M20.1843 23.6053V33.1842M5.81584 33.1842H20.1843M5.81584 33.1842V37.9737M20.1843 33.1842V37.9737M20.1843 37.9737H5.81584M20.1843 37.9737V47.5526M5.81584 37.9737V47.5526M5.81584 47.5526H20.1843M5.81584 47.5526V52.3421M20.1843 47.5526V52.3421M20.1843 52.3421H5.81584M20.1843 52.3421V61.921M5.81584 52.3421V61.921M5.81584 61.921H20.1843M5.81584 61.921V66.7105M20.1843 61.921V66.7105M20.1843 66.7105H5.81584M32.5 9.23683V27.3684M32.5 9.23683H35.9211M35.9211 9.23683V27.3684M35.9211 9.23683H46.8685M46.8685 9.23683V27.3684M46.8685 9.23683H50.2895M50.2895 9.23683V27.3684M50.2895 9.23683H61.2369M61.2369 9.23683V47.8947M61.2369 9.23683H64.6579M64.6579 9.23683V47.8947" stroke="#36383F" stroke-width="3" stroke-linecap="round" stroke-linejoin="round"/>
<path id="Ellipse 12" d="M34.2105 38.4473C37.3062 38.4473 39.8158 35.9378 39.8158 32.8421C39.8158 29.7464 37.3062 27.2368 34.2105 27.2368C31.1148 27.2368 28.6052 29.7464 28.6052 32.8421C28.6052 35.9378 31.1148 38.4473 34.2105 38.4473Z" stroke="#36383F" stroke-width="3"/>
<path id="Ellipse 13" d="M48.5789 38.4473C51.6746 38.4473 54.1842 35.9378 54.1842 32.8421C54.1842 29.7464 51.6746 27.2368 48.5789 27.2368C45.4832 27.2368 42.9736 29.7464 42.9736 32.8421C42.9736 35.9378 45.4832 38.4473 48.5789 38.4473Z" stroke="#36383F" stroke-width="3"/>
<path id="Ellipse 14" d="M62.9473 58.9737C66.043 58.9737 68.5526 56.4642 68.5526 53.3684C68.5526 50.2727 66.043 47.7632 62.9473 47.7632C59.8516 47.7632 57.342 50.2727 57.342 53.3684C57.342 56.4642 59.8516 58.9737 62.9473 58.9737Z" stroke="#36383F" stroke-width="3"/>
</g>
<defs>
<clipPath id="clip0_2_1650">
<rect width="78" height="78" fill="white"/>
</clipPath>
</defs>
</svg>
