<svg width="114" height="114" viewBox="0 0 114 114" fill="none" xmlns="http://www.w3.org/2000/svg">
<g id="Weightlifting" clip-path="url(#clip0_2_1313)">
<g id="Group 103">
<path id="Subtract" d="M80 75C85.5228 75 90 70.5228 90 65C90 59.4772 85.5228 55 80 55C74.4772 55 70 59.4772 70 65C70 65.4092 70.0246 65.8127 70.0724 66.2091C73.1153 67.0314 75.4748 70.1914 75.923 74.1339C77.1682 74.6905 78.5479 75 80 75Z" fill="white"/>
<path id="Vector 16" d="M17 61C11 71.4 14.8333 81 17.5 84.5L11 83L7.5 79.5L5.5 74.5L4 66.5L5.5 59.5L10.5 50.5L17.5 45L24.5 44L34 48C30.8333 48 23 50.6 17 61Z" fill="white"/>
<path id="Vector 14" d="M67 44.5L61.5 49L55.5 39L53.5 31.5L55.5 25L58 19.5L63 16.5L68.5 15H91L98 16.5L103.5 20L106.5 28L107 34.5L103 43L99 50L93 45L97.5 36.5L99 32.5V29.5L98 26.5L95.5 23.5L91 22H69.5L63.5 24L61.5 28.5V32.5L67 44.5Z" fill="white"/>
<path id="Vector 15" d="M45 92.5L47 100.5L52.5 105L60.5 104L66 101L71.5 95.5L74.5 90L75.5 79.5L74.5 72L71.5 68L66.5 66L61 67L54.5 70.5L50.5 74.5L46.5 83.5L45 92.5Z" fill="white"/>
<path id="Vector 11" d="M69.4058 67C73.1478 68.7784 76 72.9631 76 80C76 92.5 67 105 56.5 105C55.1435 105 53.3069 104.674 51.5 103.793M69.4058 67C66.5007 65.6193 63.0593 65.6888 60 67C53 70 45 79 45 92C45 98.7197 48.2007 102.183 51.5 103.793M69.4058 67L56.5 61.5C51.5077 60.668 45.477 63.6436 41 69.8507M51.5 103.793L41 99C34.7581 94.9873 34.0821 85.4088 37.1995 77M37.1995 77C37.5781 75.9787 38.0127 74.9747 38.5 74C39.2558 72.4884 40.0962 71.1037 41 69.8507M37.1995 77L28 72C27.3333 71.5 25.7093 69.5 27.5 66.5C29.2906 63.5 32.3333 64.5 33 65L41 69.8507M44.5 59.5C44.5 55.4618 41.8909 50.7713 37.1995 49.1162M14.5 68C17.5 56 26.5 48.5 33.5 48.5C34.8465 48.5 36.0821 48.722 37.1995 49.1162M30.5 86.5C28.4237 87.5381 25.399 88.1452 22.5 87.4261M14 74C14.5847 82.7712 18.4178 86.4134 22.5 87.4261M37.1995 49.1162L27 45C19.5 42 10.5 47.5 6 59.5C1.5 71.5 7 80.5 11.5 83L22.5 87.4261" stroke="#0A4ECB" stroke-width="3" stroke-linecap="round" stroke-linejoin="round"/>
<path id="Ellipse 15" d="M58.4127 54.5C62.3076 46.5073 70.5107 41 80 41C93.2549 41 104 51.7452 104 65C104 74.4894 98.4927 82.6924 90.5 86.5873H81" stroke="#0A4ECB" stroke-width="3" stroke-linecap="round" stroke-linejoin="round"/>
<path id="Ellipse 16" d="M81.5 74.8883C86.3113 74.1645 90 70.013 90 65C90 59.4772 85.5228 55 80 55C76.0418 55 72.6207 57.2997 71 60.6359" stroke="#0A4ECB" stroke-width="3" stroke-linecap="round" stroke-linejoin="round"/>
<path id="Vector 12" d="M93.5 44.88L98.2982 34.8996C101.171 28.9247 96.8166 22 90.187 22H70.314C63.5634 22 59.2157 29.1562 62.3265 35.1473L67.1827 44.5" stroke="#0A4ECB" stroke-width="3" stroke-linecap="round" stroke-linejoin="round"/>
<path id="Vector 13" d="M99.5 50.035L105.254 37.8171C110.252 27.2048 102.509 15 90.7791 15H70.0889C58.1466 15 50.4135 27.6093 55.8277 38.2537L61.5 49.4059" stroke="#0A4ECB" stroke-width="3" stroke-linecap="round" stroke-linejoin="round"/>
</g>
</g>
<defs>
<clipPath id="clip0_2_1313">
<rect width="114" height="114" fill="white"/>
</clipPath>
</defs>
</svg>
